<?xml version="1.0" standalone="no"?>
<!DOCTYPE svg PUBLIC "-//W3C//DTD SVG 20010904//EN"
 "http://www.w3.org/TR/2001/REC-SVG-20010904/DTD/svg10.dtd">
<svg version="1.0" xmlns="http://www.w3.org/2000/svg"
 width="2883.000000pt" height="2883.000000pt" viewBox="0 0 2883.000000 2883.000000"
 preserveAspectRatio="xMidYMid meet">
<metadata>
Created by potrace 1.11, written by Peter Selinger 2001-2013
</metadata>
<g transform="translate(0.000000,2883.000000) scale(0.100000,-0.100000)"
fill="#000000" stroke="none">
<path d="M2410 26388 c0 -18 -13 -61 -30 -96 l-30 -63 -57 6 c-112 10 -349 14
-408 5 -255 -37 -259 -38 -263 -76 -2 -16 -9 -35 -15 -42 -20 -24 -91 -55
-142 -61 l-50 -6 0 -70 c0 -46 -6 -81 -17 -101 -17 -31 -15 -66 5 -91 5 -8 33
-13 67 -13 l57 0 12 -41 c9 -29 21 -46 44 -57 17 -10 43 -29 58 -44 31 -33 89
-44 143 -30 49 14 68 2 96 -58 25 -53 25 -62 11 -247 -13 -164 -21 -188 -64
-197 -38 -8 -77 -43 -77 -69 0 -10 -14 -38 -31 -62 -25 -35 -43 -47 -84 -60
-35 -11 -57 -25 -68 -43 -25 -42 -89 -107 -119 -121 -49 -25 -61 -96 -45 -262
6 -61 4 -85 -9 -118 -15 -37 -20 -41 -51 -41 -45 0 -74 -30 -102 -106 -23 -61
-55 -104 -77 -104 -61 0 -92 -58 -101 -186 -7 -107 -15 -120 -85 -135 -66 -15
-79 -32 -72 -93 l6 -51 -39 -17 c-21 -9 -49 -20 -63 -24 -63 -18 -67 -26 -72
-143 -5 -134 -18 -158 -79 -163 -36 -3 -44 -8 -60 -38 -16 -30 -19 -58 -19
-191 0 -86 5 -170 10 -186 12 -33 39 -51 85 -55 45 -5 67 -73 66 -204 0 -97 1
-103 26 -128 14 -14 34 -26 45 -26 34 0 75 -28 89 -62 9 -22 13 -61 10 -114
-3 -75 -1 -83 21 -103 22 -22 32 -22 85 -6 18 6 23 1 34 -32 6 -21 13 -97 14
-169 2 -77 8 -141 15 -154 10 -19 8 -30 -11 -67 -13 -25 -36 -55 -52 -66 -55
-41 -87 -79 -97 -115 -5 -21 -9 -120 -9 -222 0 -102 -1 -207 -3 -235 -9 -168
4 -221 62 -254 24 -13 48 -38 59 -59 28 -56 44 -172 36 -261 -10 -106 -36
-163 -95 -205 -55 -40 -55 -37 -65 -271 -3 -71 -10 -147 -15 -167 -11 -38 -11
-38 -61 -36 -39 2 -54 -2 -64 -15 -16 -22 -29 -262 -20 -354 10 -89 18 -103
60 -103 37 0 63 -21 84 -68 7 -15 18 -38 24 -52 7 -14 30 -33 52 -44 48 -22
65 -53 65 -116 0 -25 6 -54 14 -65 7 -11 28 -72 46 -135 35 -128 57 -196 71
-222 5 -10 9 -24 9 -32 0 -8 5 -16 12 -18 7 -3 13 -30 15 -69 3 -71 11 -249
12 -262 1 -5 7 -7 13 -5 14 5 23 37 43 151 11 58 20 83 37 97 23 19 23 19 44
-5 18 -19 23 -40 27 -122 8 -142 9 -400 2 -453 -9 -67 -16 -73 -73 -71 l-50 1
-27 -56 c-15 -31 -29 -79 -32 -108 -5 -49 -3 -53 33 -88 20 -21 41 -38 45 -38
16 0 37 -80 43 -165 12 -160 28 -256 53 -329 29 -82 52 -180 53 -216 0 -24 61
-182 79 -205 5 -5 11 -39 15 -74 3 -36 10 -79 16 -95 5 -17 20 -78 34 -136 18
-80 36 -125 70 -183 42 -70 45 -81 39 -123 -5 -37 -3 -48 10 -56 21 -11 37
-69 37 -133 1 -75 18 -105 70 -124 68 -25 80 -56 81 -223 1 -153 16 -231 50
-257 58 -43 123 -122 156 -189 19 -40 50 -89 69 -107 l34 -34 0 -105 c0 -129
29 -224 82 -269 87 -73 90 -81 81 -229 -4 -69 -1 -111 12 -163 11 -44 19 -127
23 -225 4 -148 6 -156 31 -189 14 -19 37 -70 52 -115 25 -79 27 -82 80 -111
44 -24 59 -40 81 -84 33 -64 55 -91 76 -91 9 0 54 -19 101 -41 47 -23 97 -47
110 -53 31 -14 38 -34 46 -148 8 -104 -14 -312 -42 -398 -8 -25 -19 -88 -23
-140 -9 -95 -19 -164 -41 -275 -13 -70 -18 -490 -8 -720 6 -158 20 -242 53
-340 10 -27 24 -94 33 -150 8 -55 25 -136 38 -180 13 -44 35 -118 50 -166 14
-47 25 -92 25 -100 0 -7 13 -41 28 -74 35 -73 62 -188 62 -264 0 -31 7 -75 15
-99 17 -48 9 -100 -25 -159 -13 -22 -17 -43 -13 -71 5 -38 3 -41 -33 -64 -39
-23 -53 -33 -106 -66 -16 -9 -37 -37 -49 -61 -39 -84 -261 -320 -318 -340 -19
-6 -42 -17 -50 -25 -9 -7 -43 -23 -76 -34 -116 -40 -134 -50 -152 -90 -14 -29
-24 -38 -48 -40 -17 -2 -54 -10 -82 -18 l-53 -15 0 -42 c0 -36 -5 -45 -33 -64
-17 -11 -56 -24 -85 -28 -46 -6 -55 -11 -69 -38 -9 -18 -21 -35 -27 -39 -14
-10 -36 -10 -34 0 3 17 -15 62 -26 62 -6 0 -20 -7 -30 -15 -48 -37 -113 -3
-157 80 l-24 47 -45 -8 c-25 -4 -70 -8 -100 -9 -54 -1 -372 -21 -480 -30 -103
-7 -225 -26 -270 -40 -87 -27 -205 -72 -245 -93 -22 -12 -56 -22 -76 -22 -21
0 -60 -13 -93 -30 -37 -20 -78 -33 -119 -37 -34 -3 -79 -12 -101 -20 -21 -7
-58 -13 -82 -13 l-44 0 0 -3255 0 -3255 8483 1 c4665 1 8466 5 8447 9 -28 6
-30 8 -10 9 14 1 56 8 94 16 60 13 72 13 97 -1 16 -8 29 -19 29 -24 0 -6 245
-10 680 -10 598 0 680 2 680 15 0 8 7 15 15 15 8 0 15 -7 15 -15 0 -20 66 -20
77 0 6 11 16 12 38 7 20 -6 44 -3 75 9 65 25 221 45 378 48 14 1 22 7 22 19 0
10 4 22 9 28 5 5 14 26 19 46 8 28 7 41 -4 55 -12 16 -15 16 -24 3 -5 -8 -10
-10 -10 -4 0 7 -16 15 -35 18 -45 9 -45 21 0 36 39 13 55 35 55 75 0 31 -41
75 -70 75 -11 0 -20 5 -20 10 0 6 -12 10 -26 10 -34 0 -23 16 17 24 37 7 82
51 77 74 -2 9 -22 29 -44 44 -32 21 -45 39 -58 77 -9 27 -16 59 -16 71 0 11
-7 23 -15 26 -17 7 -20 35 -5 50 13 13 -9 64 -27 64 -9 0 -13 16 -13 44 0 65
-20 69 -22 4 l-1 -53 -4 45 c-3 24 -8 47 -13 50 -5 3 -12 35 -15 70 -3 36 -12
90 -20 120 -8 30 -15 70 -15 88 0 17 -3 32 -8 32 -9 0 -32 95 -32 133 0 15 -4
27 -10 27 -5 0 -10 -5 -10 -11 0 -26 -18 5 -23 38 -7 52 -17 94 -27 118 -29
71 -42 122 -46 182 -3 37 -9 70 -15 71 -5 2 -9 11 -9 20 -1 10 -7 35 -15 57
-9 24 -11 41 -5 43 13 5 13 42 1 42 -5 0 -12 13 -16 30 -4 16 -10 30 -15 30
-4 0 -8 10 -8 23 -2 90 -10 147 -25 162 -9 9 -17 25 -17 35 0 10 -5 20 -12 22
-8 3 -15 37 -19 89 -6 83 -25 158 -43 170 -8 7 -27 85 -31 129 -2 30 -32 90
-44 90 -5 0 -12 8 -15 18 -4 9 -16 33 -26 52 -11 19 -20 51 -20 70 0 24 -6 39
-19 47 -15 10 -20 10 -24 0 -8 -25 -17 59 -9 88 7 25 13 29 35 27 31 -4 36 14
7 23 -11 3 -20 14 -20 23 0 13 -4 12 -19 -7 -16 -21 -19 -21 -24 -6 -4 9 -7
27 -7 41 0 27 -22 117 -30 124 -4 3 -7 14 -7 25 -1 11 -2 36 -3 55 -2 19 -13
74 -25 122 -13 47 -21 89 -18 92 3 2 -2 35 -10 73 -8 37 -13 83 -10 101 3 17
2 57 -2 87 -5 45 -10 55 -26 55 -16 0 -19 8 -20 48 -1 26 -1 65 0 87 1 22 -6
65 -17 95 -21 58 -34 195 -22 245 4 20 -1 48 -13 83 -19 51 -19 53 -2 92 16
35 16 44 4 66 -7 15 -23 30 -35 34 -43 17 -39 53 10 99 48 45 28 79 -52 92
-120 21 -138 22 -171 5 -17 -10 -36 -27 -40 -39 -11 -29 14 -72 51 -88 47 -19
50 -32 19 -70 -40 -49 -45 -72 -21 -94 23 -20 26 -68 9 -127 -7 -27 -7 -87 1
-200 7 -90 14 -206 16 -258 2 -52 11 -147 19 -210 8 -63 17 -217 19 -342 l4
-227 26 -28 c29 -31 33 -64 12 -85 -15 -16 -21 -213 -7 -251 6 -14 5 -30 -1
-40 -7 -13 -4 -28 13 -55 12 -20 23 -55 25 -76 2 -22 11 -67 19 -100 19 -72
22 -146 7 -155 -8 -5 -10 -83 -2 -101 5 -12 2 -188 -4 -198 -3 -6 -1 -12 5
-14 7 -2 3 -28 -14 -77 l-26 -73 27 -24 c15 -13 35 -24 45 -24 18 0 25 -36 7
-42 -17 -5 -15 -120 2 -132 16 -12 16 -5 -11 -198 -6 -42 -5 -65 2 -69 16 -11
0 -39 -23 -39 -24 0 -53 -51 -32 -58 8 -2 9 -9 2 -21 -5 -10 -9 -26 -9 -37 0
-10 -3 -31 -6 -46 -5 -20 -2 -33 14 -49 23 -25 25 -37 11 -59 -6 -10 -4 -20 7
-32 11 -13 14 -29 9 -65 -3 -26 -7 -70 -9 -98 -1 -27 -4 -52 -8 -55 -3 -3 -14
-21 -26 -40 -16 -28 -18 -42 -12 -70 5 -19 6 -56 3 -82 -5 -42 -9 -48 -30 -48
-18 0 -26 -8 -35 -40 -15 -50 -4 -65 54 -75 23 -4 46 -7 50 -6 4 0 17 -8 29
-19 12 -11 30 -20 40 -20 9 0 22 -9 28 -20 8 -15 6 -23 -12 -40 -21 -19 -37
-23 -100 -24 -16 0 -28 -3 -28 -6 0 -4 -6 -7 -12 -8 -7 0 -30 -4 -50 -8 -34
-6 -38 -5 -38 15 0 11 -4 21 -9 21 -5 0 -12 8 -14 18 -4 13 -5 11 -6 -5 -2
-41 -21 -24 -22 20 -2 29 -3 34 -6 15 -5 -35 -30 -36 -39 -3 -7 27 -44 36 -44
11 0 -19 -27 -46 -46 -46 -8 0 -20 12 -27 28 -6 15 -14 29 -17 32 -13 12 -31
58 -29 71 5 22 -24 89 -38 89 -20 0 -53 33 -53 53 0 10 -7 28 -15 41 -14 21
-14 24 0 36 10 8 15 30 15 61 0 37 4 49 15 49 8 0 15 5 15 10 0 6 11 15 25 20
28 11 32 25 11 33 -9 4 -12 14 -9 28 7 26 -18 49 -54 49 -14 0 -23 6 -23 15 0
8 -3 15 -7 16 -5 0 -18 2 -30 5 -17 3 -23 -1 -23 -13 0 -14 -3 -13 -20 5 -12
12 -24 22 -28 22 -4 0 -35 5 -70 10 -69 9 -92 22 -92 51 0 13 -12 21 -39 29
-21 5 -44 17 -51 25 -7 8 -18 15 -25 15 -16 0 -27 53 -13 61 10 7 -6 48 -24
60 -5 3 -10 17 -10 30 -1 13 -10 36 -20 51 -21 30 -24 104 -7 142 7 14 9 32 5
41 -5 14 -8 14 -29 0 -13 -8 -30 -26 -37 -40 -21 -38 -43 -30 -79 30 -33 55
-35 85 -6 85 8 0 15 5 15 10 0 6 -7 10 -15 10 -8 0 -15 4 -15 9 0 5 -14 14
-30 20 -33 11 -50 39 -31 51 10 5 7 14 -11 33 -41 44 -44 51 -44 89 0 25 -7
45 -22 61 -12 13 -22 31 -22 40 0 10 -8 17 -20 17 -14 0 -20 7 -20 21 0 15 5
19 22 17 11 -2 23 3 25 10 3 6 -2 12 -11 12 -28 0 -79 56 -71 79 3 10 1 22 -5
26 -5 3 -10 25 -10 49 0 39 -3 44 -35 59 -34 16 -35 19 -35 72 0 41 -4 55 -14
55 -9 0 -12 7 -9 19 3 14 -3 23 -23 33 -20 10 -30 25 -39 60 -6 26 -8 49 -3
50 21 7 -27 102 -49 97 -4 -1 -11 16 -16 37 -4 21 -9 46 -11 54 -3 8 -5 18 -5
21 -2 13 -41 51 -41 41 0 -25 -28 -11 -33 17 -3 16 -13 36 -22 44 -8 9 -15 22
-15 31 0 8 -7 19 -16 24 -8 5 -21 25 -28 46 -7 20 -16 37 -19 37 -4 -1 -7 2
-6 6 0 3 -6 10 -14 15 -9 5 -13 16 -10 28 3 12 -1 22 -11 26 -9 3 -16 13 -16
20 0 8 -7 17 -15 20 -15 6 -30 41 -26 62 1 7 -2 12 -6 11 -21 -3 -31 3 -41 26
-15 32 -15 31 3 49 13 13 13 19 -4 58 -10 24 -37 59 -60 78 -25 21 -41 43 -41
56 0 12 -6 25 -12 27 -7 3 -4 6 6 6 19 1 19 2 -2 21 -12 11 -26 20 -32 20 -7
0 -9 8 -5 19 4 13 0 20 -14 24 -14 3 -21 16 -26 43 -3 22 -12 52 -20 67 -8 16
-15 34 -15 40 0 19 -43 100 -62 118 -19 18 -25 59 -8 59 24 0 6 40 -39 90 -28
30 -58 64 -68 75 -21 23 -43 62 -50 90 -15 59 -23 127 -21 182 1 46 -3 67 -15
81 -9 10 -17 27 -17 38 0 11 -8 29 -18 40 -25 27 -75 182 -67 211 4 17 26 34
82 61 56 27 82 46 94 69 17 30 17 33 0 55 -10 13 -42 32 -70 43 -68 26 -75 47
-100 305 -4 41 -14 91 -23 110 -8 19 -18 61 -22 93 -3 32 -13 74 -21 94 -8 20
-15 66 -15 105 0 51 -6 79 -22 111 -18 34 -22 60 -23 142 -2 97 -9 149 -42
320 -9 44 -15 100 -14 124 1 24 -4 50 -10 57 -14 17 -37 195 -50 389 -12 180
-22 273 -37 340 -6 28 -18 101 -27 164 -8 63 -19 119 -24 125 -4 6 -11 22 -14
36 -3 14 -14 49 -26 79 -11 31 -27 112 -36 185 -17 151 -35 234 -59 271 -19
29 -31 31 -53 10 -12 -12 -15 -38 -14 -121 1 -57 6 -128 11 -156 6 -28 10 -73
10 -100 0 -27 5 -59 12 -71 6 -12 12 -77 14 -152 2 -121 -7 -205 -36 -340 -5
-27 -11 -126 -11 -220 -1 -93 -1 -190 -2 -215 0 -53 68 -275 108 -350 7 -14
25 -57 40 -95 14 -38 34 -87 44 -110 22 -47 44 -115 66 -205 9 -36 23 -87 30
-115 7 -27 16 -75 19 -106 3 -30 15 -82 26 -114 24 -69 40 -202 40 -317 -1
-133 0 -150 11 -205 10 -52 10 -53 -25 -89 -20 -21 -36 -40 -36 -44 0 -5 -22
-22 -50 -40 -27 -18 -47 -36 -44 -41 3 -5 -8 -22 -25 -38 -17 -16 -31 -36 -31
-44 0 -16 75 -97 90 -97 4 0 24 -21 43 -47 25 -35 36 -63 41 -104 6 -50 4 -64
-24 -123 -18 -37 -37 -65 -43 -63 -7 2 -25 -2 -40 -10 -28 -14 -29 -16 -22
-76 4 -34 12 -68 18 -76 7 -7 12 -46 13 -85 0 -39 4 -81 8 -93 10 -30 -31 -44
-51 -17 -8 11 -13 13 -13 5 0 -9 -8 -11 -22 -8 -11 3 -37 0 -55 -8 -27 -11
-34 -20 -31 -37 3 -25 31 -35 109 -37 48 -1 79 -22 79 -54 0 -9 6 -20 13 -24
8 -4 17 -16 20 -26 4 -11 15 -21 25 -24 17 -4 69 -75 89 -123 15 -34 39 -160
64 -334 5 -39 14 -75 19 -81 5 -6 12 -29 16 -51 5 -36 4 -41 -21 -52 -14 -7
-32 -12 -39 -12 -15 0 -58 33 -125 98 -24 23 -48 42 -52 42 -5 0 -9 5 -9 11 0
6 -14 24 -30 39 -33 31 -38 50 -14 50 19 0 13 25 -7 26 -8 0 -26 2 -41 2 -22
2 -32 11 -48 44 -11 23 -20 47 -20 54 0 7 -8 15 -17 18 -10 4 -47 33 -82 66
-35 33 -67 60 -71 60 -3 0 -14 16 -23 35 -9 19 -23 35 -31 35 -7 0 -26 16 -41
35 -15 19 -43 41 -61 50 -22 10 -34 23 -34 36 0 28 -28 79 -43 79 -7 0 -18 9
-25 20 -7 11 -21 20 -32 20 -11 0 -20 5 -20 10 0 6 5 10 10 10 6 0 10 5 10 11
0 6 -8 8 -20 4 -14 -4 -28 3 -49 27 -17 18 -31 39 -31 46 0 19 -51 92 -64 92
-7 0 -16 15 -21 32 -6 20 -21 38 -39 48 -41 21 -63 44 -80 83 -8 21 -26 40
-48 50 -19 9 -35 22 -36 29 -1 7 -5 32 -8 56 -7 48 -35 73 -138 123 -16 8 -34
23 -40 34 -6 11 -22 30 -36 43 -14 12 -29 27 -35 32 -20 18 -35 39 -35 49 0 5
-15 24 -32 42 -21 20 -28 34 -20 37 7 2 12 21 12 47 0 35 5 46 26 60 24 15 26
22 22 67 -6 55 -18 68 -63 68 -17 0 -39 6 -50 14 -11 7 -37 16 -58 20 -21 4
-47 16 -58 27 -21 21 -26 75 -6 82 6 3 -7 6 -30 6 -23 1 -43 5 -45 9 -1 4 -20
18 -40 31 -39 23 -49 41 -23 41 8 0 17 12 21 28 3 15 7 33 10 40 2 7 -3 32
-11 55 -8 23 -15 55 -15 70 0 17 -11 39 -27 56 -87 90 -156 208 -147 251 4 19
3 22 -5 10 -8 -12 -12 -10 -19 10 -6 15 -6 27 0 31 5 3 2 11 -6 18 -8 7 -20
29 -27 49 -7 20 -20 51 -30 68 -9 17 -15 42 -12 57 5 26 -19 103 -45 145 -8
12 -12 31 -9 42 3 11 2 20 -3 20 -21 0 -60 55 -60 86 0 18 -6 37 -12 41 -21
13 -48 72 -48 104 0 18 -7 33 -21 41 -31 20 -52 73 -46 115 5 27 1 45 -15 70
-14 24 -23 61 -28 126 -9 97 -17 137 -30 137 -4 0 -10 34 -12 76 -3 42 -9 79
-14 83 -28 19 -47 86 -51 169 -1 48 -4 101 -6 117 -2 17 -4 39 -5 51 -2 24
-34 64 -51 64 -6 0 -11 18 -11 45 0 31 -6 51 -19 64 -17 17 -19 36 -19 192 -1
203 -7 340 -17 389 -6 34 -3 39 64 110 63 67 71 79 71 115 0 22 0 173 0 336 0
330 2 345 67 409 20 19 57 76 83 125 53 101 74 118 137 110 67 -10 125 28 190
123 26 38 48 114 40 139 -39 123 -39 131 4 238 4 11 7 45 7 75 -1 35 5 67 16
89 14 26 17 50 13 115 -2 44 0 119 5 166 l9 85 54 55 54 55 11 95 c10 91 20
129 42 177 16 33 2 134 -29 211 -14 37 -26 71 -25 77 3 29 23 143 41 240 44
235 60 485 35 526 -3 6 -2 14 2 18 5 3 18 25 28 48 15 33 17 55 12 103 -4 33
-3 60 2 60 5 0 14 18 21 41 14 46 59 98 79 91 21 -7 62 19 62 40 0 22 55 58
88 58 12 0 40 9 62 20 22 11 46 20 54 20 7 0 17 7 20 16 3 8 10 13 15 9 6 -3
20 8 32 25 13 16 28 30 35 30 6 0 17 7 24 15 7 8 28 17 49 21 20 4 58 15 84
25 26 11 58 19 72 19 13 0 25 5 27 12 6 16 91 38 168 44 36 3 75 10 86 16 18
8 26 6 43 -11 27 -27 65 -27 161 -1 117 31 150 43 150 52 0 4 5 8 10 8 6 0 20
9 32 20 12 11 32 20 44 20 27 0 43 20 17 20 -17 1 -17 1 0 15 11 7 24 12 31 9
17 -7 41 24 57 71 21 60 41 83 80 90 68 13 123 92 84 121 -12 9 -16 20 -11 38
6 24 11 26 60 26 30 0 60 6 68 13 53 51 127 106 148 111 14 3 84 8 157 10 212
9 220 11 213 70 -1 10 4 23 12 27 23 15 -37 62 -69 54 -15 -3 -34 0 -49 9 -12
9 -30 13 -38 10 -11 -4 -16 0 -16 14 0 15 5 19 19 15 15 -4 20 1 23 19 3 22 6
23 108 26 107 2 154 -8 177 -38 17 -21 16 -40 -3 -61 -23 -26 -12 -45 33 -57
l38 -10 -33 -1 c-18 -1 -40 -7 -48 -15 -23 -24 -15 -86 11 -86 20 0 29 -37 26
-97 -3 -49 -1 -53 23 -59 32 -8 51 6 73 55 9 20 21 39 27 43 18 12 17 52 -2
78 -10 14 -21 33 -25 43 -3 9 -11 17 -17 17 -5 0 -10 18 -10 40 0 39 1 40 33
40 36 -1 102 -19 164 -45 40 -17 61 -44 49 -64 -9 -14 20 -21 33 -8 6 6 11 17
11 25 0 7 4 11 9 8 13 -8 41 4 41 18 0 6 -5 29 -11 50 -8 29 -13 36 -20 25 -7
-11 -9 -9 -9 9 0 12 -4 22 -8 22 -5 0 -14 -10 -20 -22 -10 -22 -11 -21 -10 7
2 38 -8 55 -32 55 -11 0 -36 11 -56 25 -20 14 -45 25 -55 25 -10 0 -25 8 -35
17 -13 13 -19 14 -22 5 -5 -16 -42 -16 -43 1 -1 6 -1 20 0 29 2 19 -27 38 -58
38 -11 0 -30 10 -41 23 -19 20 -32 22 -141 26 -82 2 -119 0 -119 -8 0 -14 -27
-14 -36 0 -14 24 -14 91 1 106 13 13 15 12 15 -6 0 -12 3 -21 8 -22 4 0 30 -2
57 -4 112 -7 169 -15 178 -27 7 -10 10 -10 14 0 6 15 30 16 35 1 3 -8 10 -8
26 2 12 8 20 20 17 26 -6 17 6 16 33 -3 12 -8 22 -24 22 -34 0 -23 9 -26 65
-22 36 3 45 8 45 23 0 10 -5 19 -11 19 -7 0 -22 11 -35 25 -13 14 -29 22 -37
19 -8 -3 -18 -1 -22 5 -3 6 0 11 7 11 9 1 7 5 -4 14 -24 18 -23 46 2 46 11 0
20 7 20 15 0 8 9 24 21 36 25 25 12 46 -29 51 -20 2 -28 10 -30 27 -2 13 -12
26 -23 28 -15 4 -19 14 -19 49 l0 44 -40 0 c-29 0 -40 4 -40 15 0 11 -11 15
-40 15 -38 0 -40 -2 -40 -30 0 -28 -2 -30 -40 -30 -33 0 -40 -3 -40 -20 0 -17
-7 -20 -45 -20 -48 0 -65 -16 -65 -62 0 -18 -2 -20 -10 -8 -5 8 -10 94 -10
191 0 171 1 176 23 197 24 23 107 32 107 12 0 -5 17 -10 38 -10 27 0 42 6 52
21 8 12 22 28 30 37 10 11 14 33 12 78 -3 53 -1 64 12 64 14 0 16 27 16 214
l0 214 -40 32 c-22 17 -40 39 -40 47 0 11 -6 13 -22 8 -28 -8 -39 -9 -105 -7
-47 2 -53 4 -54 25 0 12 -3 91 -5 175 -3 91 -9 152 -15 152 -6 0 -9 24 -7 57
3 61 21 81 37 41 9 -21 10 -19 10 14 1 26 -6 45 -24 64 -15 16 -25 39 -25 57
0 16 -11 52 -25 79 -16 32 -22 55 -17 64 5 9 5 39 1 67 -7 58 -2 353 7 405 4
20 2 32 -5 32 -17 0 -13 31 6 45 14 10 9 13 -33 20 -27 4 -43 10 -37 12 9 3
13 30 13 84 0 43 4 79 9 79 5 0 11 9 14 20 4 15 14 20 36 20 42 0 50 -24 52
-145 1 -74 4 -95 15 -95 10 0 14 14 14 50 l0 50 40 0 c22 0 40 5 40 10 0 6
-18 10 -40 10 l-40 0 0 270 c0 233 -2 270 -15 270 -8 0 -15 4 -15 10 0 5 -14
24 -31 43 -17 19 -40 63 -53 103 -20 60 -23 92 -24 239 -2 169 -2 171 24 198
20 22 34 27 69 27 25 0 45 5 45 10 0 6 5 10 11 10 29 0 54 53 33 70 -20 18
-17 27 11 34 44 11 31 36 -19 36 -40 0 -45 3 -57 32 -7 18 -12 43 -11 57 1 25
1 25 -13 7 -8 -11 -14 -31 -13 -46 3 -36 -7 -47 -47 -54 -34 -7 -51 -36 -20
-36 26 0 18 -45 -10 -58 -14 -6 -25 -16 -25 -21 0 -14 -90 -33 -124 -25 -17 4
-36 13 -42 22 -17 23 -9 190 10 211 9 10 16 21 16 26 0 5 7 17 17 27 13 14 14
23 6 41 -6 13 -7 30 -2 38 4 9 4 46 -2 85 -12 81 -12 91 -4 126 5 18 2 31 -12
45 -35 36 -59 123 -33 123 6 0 10 27 10 60 0 45 4 62 15 66 19 8 19 34 0 34
-11 0 -15 12 -15 48 0 27 -7 64 -16 81 -12 24 -14 43 -9 69 4 21 11 73 14 117
l6 80 33 3 c26 3 32 8 32 27 0 13 4 27 10 30 5 3 10 15 10 25 0 28 18 34 45
16 13 -9 31 -16 39 -16 7 0 16 -7 20 -15 7 -19 31 -19 61 1 20 13 23 20 15 35
-8 14 -5 28 10 56 11 21 20 43 20 50 0 7 6 13 14 13 8 0 16 5 18 12 3 8 13 5
33 -10 34 -27 45 -28 45 -2 0 11 7 20 15 20 41 0 39 105 -2 143 -54 48 -119
19 -115 -51 3 -45 -16 -72 -51 -72 -26 0 -49 -13 -47 -26 0 -5 -7 -11 -17 -13
-10 -2 -30 -12 -45 -22 -14 -11 -33 -19 -42 -19 -19 0 -21 -16 -3 -23 9 -4 9
-6 0 -6 -7 -1 -13 -12 -13 -26 0 -28 -8 -31 -35 -11 -18 13 -17 14 11 29 16 9
24 16 18 17 -17 0 -36 50 -41 106 -4 47 -1 54 24 73 22 18 25 25 17 39 -6 10
-8 26 -3 37 20 53 -13 145 -53 145 -11 0 -18 8 -18 19 0 11 -4 23 -10 26 -11
7 -14 74 -4 99 3 9 15 16 25 16 11 0 28 5 38 12 26 16 51 4 44 -21 -5 -18 -1
-21 26 -21 21 0 31 5 31 15 0 10 10 15 34 15 31 0 34 3 40 34 7 34 1 47 -42
92 -17 18 -52 17 -75 -1 -11 -7 -25 -11 -32 -9 -7 3 -16 1 -20 -5 -3 -6 -19
-11 -35 -11 -33 0 -41 17 -43 87 0 48 12 64 44 56 11 -3 28 2 39 12 17 16 24
16 47 6 22 -10 24 -14 12 -22 -21 -13 7 -12 33 2 16 9 19 8 13 -1 -6 -10 1
-11 31 -5 21 4 41 10 44 13 11 15 40 11 49 -7 6 -10 24 -24 41 -29 19 -7 30
-18 30 -29 0 -10 9 -36 20 -57 10 -22 17 -43 13 -49 -3 -6 -1 -7 5 -3 13 8 27
-33 15 -45 -4 -4 -25 -2 -47 5 -35 12 -41 12 -56 -3 -21 -19 -44 -87 -35 -101
3 -5 17 -10 30 -10 13 0 27 -4 30 -10 13 -21 43 -10 54 21 12 35 34 34 39 -2
6 -36 31 -60 57 -53 44 11 99 -50 65 -71 -13 -8 -13 -72 0 -80 12 -7 13 -45 2
-45 -10 0 -33 -91 -26 -102 3 -5 13 -8 24 -8 21 0 40 -45 40 -96 0 -18 6 -34
13 -37 9 -3 8 -14 -4 -48 -19 -53 -54 -64 -91 -29 -53 51 -64 54 -102 30 -19
-11 -42 -35 -51 -53 -15 -31 -15 -31 24 -67 21 -19 47 -40 57 -46 18 -10 18
-12 1 -38 -21 -32 -15 -62 16 -70 15 -4 27 0 39 15 14 16 18 18 18 6 0 -12 8
-8 31 12 27 25 30 33 24 61 -5 24 -4 31 6 28 23 -8 35 -36 23 -56 -9 -14 -9
-24 2 -43 7 -13 13 -43 12 -67 -1 -36 3 -47 25 -65 22 -19 27 -32 31 -87 2
-36 10 -79 16 -95 21 -56 42 -190 36 -237 -3 -27 2 -83 10 -125 8 -42 16 -107
19 -144 5 -83 18 -117 48 -128 41 -16 44 -24 59 -173 1 -10 8 -18 15 -18 7 0
13 -4 13 -8 0 -5 8 -18 18 -30 9 -11 25 -32 36 -46 10 -14 22 -23 27 -20 5 3
12 -2 15 -10 3 -9 11 -16 17 -16 6 0 18 -7 27 -15 29 -26 125 -73 165 -80 86
-14 168 -22 188 -18 21 5 69 24 111 46 11 5 33 11 50 14 17 3 33 9 36 13 3 5
12 10 20 12 24 5 42 27 36 43 -6 17 -26 20 -26 4 0 -5 -4 -8 -9 -5 -13 9 -1
48 23 73 37 37 41 47 43 98 2 36 9 55 23 67 11 9 20 25 20 35 0 11 11 30 24
42 14 13 28 40 31 62 4 21 11 39 16 39 6 0 9 23 7 50 -2 28 -6 49 -10 48 -4
-2 -19 13 -33 32 -24 32 -25 40 -19 98 5 53 3 70 -14 105 -14 27 -27 87 -37
164 -19 153 -19 230 0 267 17 33 21 91 5 66 -8 -11 -10 7 -8 61 2 43 7 75 12
72 4 -3 5 3 2 14 -4 12 1 29 14 46 11 14 20 32 20 40 0 23 65 40 89 23 7 -6
28 -9 45 -8 45 4 86 -14 86 -37 0 -54 92 -41 120 17 8 17 20 32 27 32 6 0 24
6 40 14 41 21 96 36 126 36 15 0 35 4 45 10 19 11 96 39 129 47 12 3 28 18 35
34 7 16 16 29 20 29 5 0 8 4 8 9 0 14 52 67 71 74 11 3 19 23 23 54 9 63 27
102 48 109 18 5 25 24 11 24 -5 0 -9 21 -10 45 -1 28 -10 56 -22 71 -16 20
-17 29 -8 53 15 40 -9 101 -47 119 -15 8 -30 20 -33 28 -3 8 -12 14 -20 14
-22 0 -83 50 -83 69 0 13 -2 13 -9 2 -13 -20 -29 -5 -24 22 3 13 -3 41 -13 63
-17 37 -19 47 -23 105 0 16 -16 42 -39 65 -21 22 -41 47 -45 57 -4 10 -11 15
-17 12 -5 -3 -10 -2 -10 3 0 6 -10 12 -22 16 -27 7 -98 68 -98 84 0 6 9 16 20
22 44 24 48 80 5 80 -23 0 -55 28 -55 48 0 7 -4 12 -9 12 -5 0 -12 28 -16 62
-6 51 -5 64 9 73 9 7 16 22 16 34 0 11 6 21 14 21 7 0 19 6 25 13 18 23 -9 46
-74 62 -45 12 -69 25 -99 55 -21 22 -42 40 -46 40 -4 0 -12 11 -18 25 -6 14
-18 25 -27 25 -8 0 -15 5 -15 10 0 6 -6 10 -12 10 -7 0 -24 26 -38 57 -14 31
-44 78 -67 105 -24 27 -43 55 -43 62 0 9 -7 12 -20 9 -22 -6 -34 25 -28 73 2
21 8 29 22 27 38 -3 46 18 32 93 -6 38 -19 83 -29 101 -15 29 -15 33 -1 47 9
10 33 16 60 16 l44 0 0 50 c0 28 4 50 8 50 20 0 32 -28 32 -74 0 -33 7 -62 20
-83 17 -28 26 -33 62 -35 64 -3 91 0 97 10 3 5 21 17 39 26 27 14 31 20 21 32
-6 8 -19 14 -28 14 -14 0 -17 7 -13 30 4 29 3 30 -34 31 -22 1 -43 1 -48 0 -5
-1 -17 6 -27 15 -30 27 -22 124 10 124 9 0 24 12 34 25 l18 25 -36 0 c-31 0
-35 -3 -35 -25 0 -22 -4 -25 -35 -25 -31 0 -35 3 -35 25 0 21 5 25 30 25 29 0
30 1 30 50 0 47 2 50 25 50 21 0 25 5 25 30 0 25 -4 30 -25 30 -25 0 -25 1
-25 80 0 47 -4 80 -10 80 -5 0 -10 18 -10 40 0 24 -5 40 -12 40 -6 0 -3 9 7
20 26 29 101 28 132 -2 19 -18 23 -19 23 -5 0 11 12 18 38 23 47 9 136 9 152
-1 19 -12 50 25 50 59 0 25 -7 35 -33 49 -18 10 -38 17 -43 16 -5 -1 -22 -1
-37 0 -25 1 -27 3 -16 22 7 14 17 19 30 16 10 -3 19 -1 19 4 0 5 16 9 35 9 50
0 75 25 75 77 0 33 5 45 21 54 16 8 23 8 29 -1 4 -7 12 0 20 19 7 17 16 31 20
31 5 0 16 -20 27 -45 21 -53 37 -57 52 -14 9 27 14 30 39 24 38 -8 52 10 61
77 l6 52 61 -3 c55 -2 65 1 88 24 21 21 30 24 45 15 16 -8 23 -6 36 12 8 13
21 23 28 24 29 2 77 30 77 45 0 10 -15 21 -40 29 -22 7 -40 17 -40 22 0 11
-94 10 -106 -2 -6 -6 -21 1 -41 18 -17 16 -63 39 -102 52 -79 26 -92 48 -41
67 27 10 30 16 30 52 0 40 1 41 33 41 21 0 41 8 52 20 12 13 31 20 56 20 20 0
39 5 41 12 3 9 94 11 361 9 246 -1 357 1 357 8 0 6 5 11 11 11 12 0 69 58 69
70 0 5 -8 11 -17 13 -17 4 -17 5 0 6 18 1 26 51 7 51 -28 0 6 89 43 115 31 22
319 22 337 0 14 -17 62 -20 91 -5 13 7 19 7 19 0 0 -5 10 -10 23 -10 12 0 32
-8 43 -18 17 -13 20 -25 17 -54 l-5 -38 -57 0 c-46 0 -60 -5 -79 -24 -12 -13
-18 -26 -13 -28 12 -4 17 -89 7 -107 -11 -17 14 -43 33 -36 9 4 25 8 36 11 11
2 29 15 41 29 l21 26 51 -32 c42 -26 54 -29 66 -20 18 15 56 5 56 -15 0 -8 5
-14 10 -14 6 0 10 -18 10 -40 0 -37 -2 -40 -27 -40 -23 0 -31 -7 -45 -40 l-16
-40 31 -26 c23 -19 38 -24 58 -20 21 4 32 0 43 -15 9 -14 15 -16 18 -8 6 17
28 2 28 -20 0 -9 -7 -26 -15 -37 -19 -26 -19 -60 1 -68 15 -6 15 -8 -1 -26
-12 -13 -14 -20 -6 -20 15 0 71 -54 71 -69 0 -6 4 -11 9 -11 16 0 20 -41 5
-47 -8 -3 -14 -16 -14 -29 0 -22 4 -24 45 -24 39 0 51 -5 80 -35 38 -37 44
-55 20 -55 -9 0 -18 -7 -21 -15 -4 -8 -15 -15 -25 -15 -12 0 -19 -7 -19 -20 0
-11 6 -20 14 -20 15 0 29 -27 21 -41 -3 -5 1 -32 9 -60 9 -28 13 -55 11 -59
-3 -5 1 -14 8 -22 8 -7 16 -20 20 -28 3 -8 6 2 6 23 1 20 5 37 10 37 17 0 22
-19 11 -40 -9 -16 -8 -24 5 -36 8 -8 15 -26 15 -40 0 -27 29 -104 45 -119 56
-52 63 -82 55 -220 -4 -62 6 -153 20 -170 8 -10 23 -311 25 -495 1 -58 7 -118
14 -135 29 -73 37 -84 62 -99 34 -20 156 -22 193 -2 58 30 96 117 76 172 -11
28 -4 64 25 129 32 72 48 168 42 254 -3 47 -1 112 4 144 5 32 16 135 24 230 8
95 16 186 19 202 5 30 24 246 24 275 0 8 6 101 13 205 7 105 13 237 14 295 1
63 8 127 18 160 28 97 50 579 28 633 -18 45 -13 94 14 147 15 30 25 66 25 92
0 24 6 52 14 63 7 11 16 38 19 60 10 62 13 74 20 81 10 10 -2 71 -24 119 -9
22 -20 55 -24 73 l-7 32 -1076 0 c-987 0 -1077 -1 -1094 -17 -17 -15 -19 -15
-36 0 -17 16 -599 17 -8175 17 l-8157 0 0 -32z m5794 -137 c15 -16 15 -22 4
-40 -16 -26 -19 -26 -52 0 -32 25 -33 46 -3 52 12 2 25 5 28 6 3 0 14 -8 23
-18z m-6677 -322 c-11 -18 -13 -18 -24 -3 -9 12 -9 22 -1 37 10 20 11 20 24 3
10 -14 10 -22 1 -37z m7300 10 c-11 -7 -23 -7 -28 -2 -5 5 3 9 19 11 24 1 25
0 9 -9z m147 -103 c32 -29 33 -44 4 -55 -40 -15 -76 19 -63 60 8 26 29 24 59
-5z m7716 -181 c14 -16 5 -151 -11 -161 -12 -7 -12 -51 1 -73 5 -10 12 -48 16
-85 7 -66 6 -68 -22 -92 -37 -29 -68 -30 -124 -1 -35 17 -47 31 -59 64 -11 31
-23 45 -43 52 -49 17 -55 54 -30 198 12 74 22 82 90 77 43 -4 67 0 97 15 49
24 69 25 85 6z m1074 -427 c21 -22 26 -47 11 -62 -19 -19 -19 -26 0 -26 8 0
15 9 15 20 0 21 15 27 25 10 15 -24 -8 -47 -70 -72 -36 -14 -65 -21 -65 -15 0
5 -7 4 -15 -3 -8 -7 -15 -19 -15 -26 0 -8 -11 -16 -25 -20 -18 -4 -25 -13 -25
-30 0 -19 -5 -24 -25 -24 -14 0 -25 -5 -25 -11 0 -6 -14 -9 -32 -7 -47 4 -63
39 -37 82 25 43 73 96 87 96 7 0 24 18 38 40 19 28 34 40 50 40 13 0 24 5 24
10 0 14 69 12 84 -2z m423 -164 c-3 -3 -12 -4 -19 -1 -8 3 -5 6 6 6 11 1 17
-2 13 -5z m-747 -100 c0 -8 -4 -12 -10 -9 -5 3 -10 10 -10 16 0 5 5 9 10 9 6
0 10 -7 10 -16z m295 -54 c4 -6 -7 -10 -24 -10 -17 0 -31 5 -31 10 0 6 11 10
24 10 14 0 28 -4 31 -10z m-417 -440 c32 0 40 -5 64 -43 l28 -42 -22 -18 c-14
-12 -24 -15 -26 -8 -2 6 -21 11 -43 11 -35 0 -39 3 -39 25 0 14 -4 25 -10 25
-5 0 -10 -4 -10 -10 0 -5 -7 -10 -15 -10 -20 0 -20 49 0 56 8 3 18 16 22 27 6
19 7 19 11 5 2 -13 13 -18 40 -18z m3004 -132 c-14 -14 -32 -1 -32 22 0 23 16
35 23 18 3 -7 7 1 8 17 2 26 3 25 6 -9 3 -21 0 -43 -5 -48z m-2882 -68 c0 -5
-7 -10 -15 -10 -8 0 -15 5 -15 10 0 6 7 10 15 10 8 0 15 -4 15 -10z m-130
-290 c0 -20 -5 -30 -15 -30 -10 0 -15 10 -15 30 0 20 5 30 15 30 10 0 15 -10
15 -30z m-190 -10 c10 -5 28 -23 40 -40 17 -24 19 -32 9 -49 -13 -20 -64 -33
-98 -24 -25 6 -27 31 -6 59 8 10 15 29 15 42 0 24 11 27 40 12z m-1028 -232
c-9 -9 -15 -9 -24 0 -9 9 -7 12 12 12 19 0 21 -3 12 -12z m-412 -187 c0 -10
-7 -24 -15 -31 -8 -7 -15 -22 -15 -34 0 -31 -22 -58 -38 -47 -11 7 -10 15 4
47 10 21 18 46 19 54 4 28 5 30 25 30 13 0 20 -7 20 -19z m-23 -298 c10 -16
22 -31 27 -34 13 -10 -1 -56 -19 -63 -25 -9 -64 12 -71 39 -3 14 -10 25 -15
25 -16 0 -10 19 13 40 29 27 44 25 65 -7z m-3 -437 c-3 -9 -10 -16 -15 -16
-11 0 -12 21 -3 45 6 15 8 15 16 2 4 -8 5 -22 2 -31z m33 -196 c-3 -23 -1 -40
5 -40 5 0 8 -10 6 -22 -2 -18 -10 -23 -33 -23 -23 0 -31 5 -33 23 -2 12 2 22
8 22 20 0 40 28 40 54 0 14 3 26 6 26 4 0 4 -18 1 -40z m-8 -186 c19 -10 49
-14 78 -12 44 3 48 1 57 -25 12 -34 -8 -59 -51 -63 -28 -2 -84 -16 -114 -28
-23 -10 -69 40 -69 76 0 18 6 31 18 35 9 4 21 12 25 20 10 17 17 16 56 -3z
m-29 -184 c0 -5 -9 -10 -19 -10 -11 0 -23 5 -26 10 -4 6 5 10 19 10 14 0 26
-4 26 -10z m1710 -109 c0 -5 10 -11 21 -13 14 -2 30 -20 47 -51 l25 -48 -23
-24 c-13 -14 -32 -25 -42 -25 -10 0 -22 -8 -25 -17 -4 -9 -13 -25 -22 -35 -8
-9 -15 -36 -16 -60 0 -24 -6 -60 -14 -80 -11 -34 -16 -38 -46 -38 -18 0 -42 8
-54 18 -20 15 -22 27 -23 117 -1 154 1 170 21 193 10 12 21 22 25 22 4 0 24
11 44 25 36 25 82 34 82 16z m-67 -478 c-7 -2 -13 -13 -13 -24 0 -23 -15 -25
-24 -3 -11 28 -7 34 22 33 15 0 21 -3 15 -6z m-1193 -502 c0 -5 3 -16 6 -25 4
-11 1 -16 -10 -16 -10 0 -16 9 -16 25 0 14 5 25 10 25 6 0 10 -4 10 -9z m-459
-1442 c13 -25 0 -43 -24 -33 -21 8 -23 54 -2 54 8 0 19 -9 26 -21z m19 -113
c0 -8 9 -18 20 -21 27 -9 37 -51 16 -74 -9 -10 -13 -21 -9 -25 5 -4 8 -58 8
-119 0 -62 4 -120 9 -129 7 -16 3 -18 -32 -18 -23 0 -43 4 -47 9 -3 6 -9 45
-14 88 -5 43 -12 89 -17 102 -4 15 -3 22 3 18 11 -7 45 28 36 37 -3 3 0 12 6
20 11 13 8 16 -13 22 -19 4 -26 13 -26 30 0 13 5 24 10 24 6 0 16 11 22 25 12
27 28 33 28 11z m-60 -371 c0 -8 -7 -15 -15 -15 -26 0 -18 20 13 29 1 1 2 -6
2 -14z m-2 -48 c2 -10 -3 -17 -12 -17 -10 0 -16 9 -16 21 0 24 23 21 28 -4z
m292 -121 c0 -82 -12 -126 -34 -126 -8 0 -16 -4 -18 -9 -1 -6 -24 -11 -50 -12
-48 -3 -83 14 -71 34 3 6 5 32 4 59 -2 42 0 48 19 48 11 0 20 5 20 11 0 5 12
23 28 39 20 22 37 29 65 30 l37 0 0 -74z m-5855 -1110 c164 -9 249 -18 270
-31 32 -20 105 -32 170 -30 76 4 250 4 293 1 18 -2 54 1 80 6 126 24 167 25
277 7 61 -9 130 -24 154 -33 75 -27 328 -18 406 14 34 14 146 30 225 32 83 2
171 -24 199 -58 9 -11 38 -28 64 -38 84 -32 122 -86 112 -160 -3 -23 -2 -63 4
-91 7 -39 6 -53 -5 -66 -20 -22 -30 -79 -15 -88 15 -10 3 -41 -15 -41 -8 0
-14 -7 -14 -15 0 -8 -4 -15 -10 -15 -23 0 -32 -74 -18 -150 13 -68 18 -77 49
-98 19 -13 34 -29 34 -35 0 -7 10 -22 21 -33 13 -13 24 -41 28 -70 6 -45 17
-75 51 -144 14 -27 44 -121 51 -157 12 -63 11 -79 -7 -112 -10 -20 -19 -41
-19 -47 0 -7 -16 -28 -36 -48 -39 -39 -77 -47 -114 -23 -17 10 -22 9 -30 -3
-8 -12 -10 -12 -16 3 -3 9 -13 17 -22 17 -9 0 -34 20 -58 45 -23 25 -46 45
-51 45 -12 0 -23 27 -52 130 -16 56 -21 103 -21 186 0 128 -11 171 -47 180
-46 12 -146 -6 -180 -32 -17 -13 -36 -24 -41 -24 -6 0 -12 -3 -14 -7 -1 -5
-28 -25 -59 -46 -31 -22 -79 -63 -107 -92 -60 -63 -102 -79 -257 -101 -60 -8
-128 -24 -150 -34 -22 -10 -67 -31 -100 -45 -63 -29 -105 -61 -105 -80 0 -7
-12 -39 -26 -71 l-26 -59 12 -155 c7 -85 11 -198 11 -250 -2 -57 3 -108 10
-125 8 -19 13 -88 14 -185 1 -138 3 -160 22 -196 23 -42 106 -104 188 -139 22
-9 48 -21 57 -26 10 -5 26 -9 36 -9 10 0 29 -11 42 -25 22 -23 22 -25 6 -50
-9 -14 -24 -25 -34 -25 -9 0 -46 -8 -82 -19 -126 -37 -199 -51 -270 -51 -90 0
-169 -22 -212 -60 -18 -16 -43 -30 -55 -30 -25 0 -108 -25 -137 -41 -10 -6
-64 -22 -119 -35 -55 -14 -114 -33 -131 -43 -17 -10 -56 -24 -86 -31 -30 -7
-77 -24 -105 -38 -27 -14 -79 -31 -115 -38 -36 -7 -105 -24 -155 -39 -115 -35
-194 -53 -275 -65 -71 -11 -140 -29 -155 -42 -5 -4 -19 -8 -30 -8 -12 0 -39
-9 -61 -19 -21 -10 -75 -25 -119 -32 -100 -15 -137 -31 -159 -64 -22 -34 -76
-57 -114 -49 -17 3 -46 1 -66 -6 -30 -10 -42 -22 -66 -71 -17 -32 -30 -65 -30
-72 0 -8 -8 -34 -19 -58 -14 -33 -21 -81 -26 -194 -9 -196 -10 -190 20 -265
14 -36 30 -96 36 -134 10 -60 9 -70 -5 -78 -10 -6 -16 -22 -16 -43 0 -19 -4
-37 -10 -40 -5 -3 -10 -17 -10 -31 0 -13 -4 -24 -10 -24 -5 0 -10 -21 -10 -47
0 -50 20 -83 50 -83 33 0 70 -39 70 -75 0 -46 51 -62 97 -30 14 10 24 12 28 5
3 -5 19 -10 34 -10 30 0 51 -16 51 -40 0 -11 23 -27 63 -44 34 -16 64 -31 67
-35 9 -13 102 -61 117 -61 8 0 24 -11 35 -25 11 -14 30 -25 44 -25 13 0 24 -5
24 -10 0 -17 51 -69 90 -92 74 -44 92 -104 45 -148 -15 -14 -25 -35 -25 -51 0
-40 -17 -79 -37 -86 -10 -3 -38 -21 -63 -38 -25 -18 -57 -35 -72 -39 -18 -4
-30 -16 -37 -38 -23 -68 -110 -140 -198 -166 -113 -33 -293 -160 -293 -207 0
-17 -46 -95 -64 -108 -6 -4 -26 -5 -44 -2 -18 3 -41 3 -51 0 -23 -7 -71 -78
-71 -104 0 -28 -47 -61 -85 -61 -59 0 -114 -42 -115 -87 0 -12 -12 -30 -28
-42 -25 -17 -39 -19 -105 -14 -43 3 -80 10 -83 14 -2 5 -16 4 -30 -1 -67 -26
-170 3 -226 63 -21 22 -38 46 -38 54 0 7 -16 23 -35 35 -19 13 -35 30 -35 38
0 9 -4 20 -8 25 -9 11 0 190 10 200 3 4 20 -1 37 -9 17 -9 55 -16 88 -16 48 0
60 4 71 21 7 11 11 28 8 37 -2 9 -7 29 -10 45 -4 15 -13 27 -21 27 -8 0 -15 7
-15 15 0 8 -4 15 -10 15 -5 0 -10 -7 -10 -16 0 -11 -8 -14 -27 -12 -21 2 -36
-6 -63 -34 -19 -21 -38 -38 -41 -38 -4 0 -10 11 -13 24 -5 22 -43 71 -105 135
-20 21 -25 38 -29 99 -3 54 -1 76 8 82 9 5 10 17 5 36 -4 16 -8 61 -9 99 -1
69 -2 70 -29 73 -41 5 -50 32 -21 65 13 16 24 23 24 18 0 -20 28 -11 33 10 8
29 -2 49 -24 49 -12 0 -21 9 -25 25 -3 14 -9 25 -13 25 -4 0 -7 15 -8 33 0 17
-6 86 -12 152 -14 131 -14 193 -2 210 12 16 17 81 11 153 -1 9 1 27 5 40 6 16
3 22 -9 22 -9 0 -16 7 -16 15 0 8 -4 15 -9 15 -13 0 -21 39 -14 73 4 22 16 34
45 47 24 10 34 20 26 23 -7 2 -2 8 15 12 18 5 27 14 27 27 0 26 37 78 56 78 8
0 28 30 47 70 17 38 35 70 39 70 4 0 18 11 31 23 30 31 139 53 180 38 16 -6
33 -9 38 -5 5 3 9 0 9 -5 0 -6 5 -11 10 -11 6 0 10 9 10 20 0 11 7 20 15 20
12 0 15 13 15 55 0 30 -4 55 -10 55 -5 0 -10 -9 -10 -19 0 -20 -17 -37 -27
-27 -3 3 -1 25 5 48 7 27 8 44 2 46 -6 2 -10 10 -10 17 0 8 -11 25 -25 39 -29
29 -32 48 -10 66 25 21 1 120 -30 120 -7 0 -17 -9 -20 -20 -11 -34 -25 -22
-25 20 0 29 -4 40 -15 40 -8 0 -15 2 -15 4 0 2 -3 11 -6 20 -4 10 -1 16 9 16
11 0 17 16 22 59 5 46 11 60 26 64 27 7 27 67 -1 74 -22 6 -27 38 -7 46 6 3
-3 3 -20 0 -32 -5 -33 -4 -34 28 -4 88 12 179 31 179 5 0 16 7 24 16 15 14 16
13 16 -15 0 -20 5 -31 14 -31 19 0 48 29 40 41 -3 5 0 8 8 7 8 -2 14 9 16 31
4 41 22 61 55 61 22 0 27 6 36 50 14 65 14 106 0 132 -9 17 -7 24 14 42 26 22
34 47 41 134 3 30 10 60 17 68 7 8 9 28 5 51 -4 21 -8 48 -9 61 -1 12 -5 22
-9 22 -3 0 -8 41 -10 90 -1 50 -7 94 -13 98 -12 8 -12 71 -1 125 5 24 4 47 -3
63 -6 15 -7 24 -1 24 6 0 10 5 10 10 0 6 -27 10 -60 10 -53 0 -60 2 -60 20 0
12 7 20 16 20 14 0 74 57 74 70 0 3 -4 11 -9 19 -8 12 -12 12 -25 2 -26 -21
-49 -6 -41 27 4 20 1 33 -10 42 -11 10 -15 34 -15 106 0 51 -4 103 -9 116 -4
13 -5 46 -2 75 4 29 4 59 -1 67 -4 8 -4 25 1 38 5 13 12 40 16 61 4 28 11 37
25 37 17 0 20 7 20 48 0 44 18 113 33 128 4 4 7 26 7 49 0 34 6 46 34 72 24
20 32 34 26 43 -5 8 -7 17 -4 21 2 4 -6 15 -18 23 -12 9 -17 16 -10 16 6 0 12
9 12 19 0 16 8 20 43 23 l42 3 -4 55 c-2 30 -8 58 -13 61 -6 4 -8 11 -4 17 3
6 -9 16 -29 23 -43 16 -44 30 -6 47 25 11 34 10 75 -12 83 -44 171 -51 218
-16 15 11 32 20 38 20 46 0 -61 159 -109 160 -8 0 -2 9 13 21 21 16 49 23 119
29 51 4 106 13 122 18 90 31 133 42 158 42 15 0 44 7 64 15 19 8 42 15 50 15
8 0 27 8 41 18 24 16 217 82 407 137 33 10 92 20 130 22 39 2 79 9 90 14 17 8
290 18 320 12 6 -1 55 -4 110 -7z m-1895 -716 c0 -5 -4 -10 -10 -10 -5 0 -10
5 -10 10 0 6 5 10 10 10 6 0 10 -4 10 -10z m7750 -146 c0 -8 -5 -12 -10 -9 -6
4 -8 11 -5 16 9 14 15 11 15 -7z m187 -156 c-2 -24 -4 -5 -4 42 0 47 2 66 4
43 2 -24 2 -62 0 -85z m-191 -56 c-11 -10 -12 3 -7 53 l6 50 3 -49 c2 -26 1
-51 -2 -54z m-179 -588 c10 -43 9 -46 -14 -55 -13 -5 -26 -9 -27 -9 -2 0 -6
17 -9 37 -5 27 -2 41 11 54 25 26 28 24 39 -27z m213 -94 c0 -17 -6 -20 -42
-19 -24 0 -37 3 -30 6 6 2 12 11 12 19 0 9 11 14 30 14 23 0 30 -4 30 -20z
m-220 -40 c0 -11 -7 -20 -15 -20 -8 0 -15 9 -15 20 0 11 7 20 15 20 8 0 15 -9
15 -20z m278 -2 c3 -14 -3 -18 -27 -18 -25 0 -31 4 -31 21 0 16 5 20 27 17 17
-2 29 -10 31 -20z m-83 -37 c-3 -12 -15 -21 -25 -21 -10 0 -21 -6 -23 -12 -3
-7 -6 1 -6 18 -1 23 5 34 22 41 27 13 41 2 32 -26z m-195 -21 c0 -11 -4 -20
-10 -20 -5 0 -10 2 -10 4 0 2 -3 11 -6 20 -4 11 -1 16 10 16 9 0 16 -8 16 -20z
m-43 -16 c-3 -3 -12 -4 -19 -1 -8 3 -5 6 6 6 11 1 17 -2 13 -5z m8 -108 c11
-8 16 -20 12 -29 -4 -11 -2 -14 7 -11 14 5 21 -7 37 -60 6 -20 5 -32 -2 -37
-6 -3 -12 -21 -14 -39 -4 -57 -55 -64 -73 -10 -7 17 -7 43 -1 67 12 54 11 61
-11 68 -25 8 -26 40 -2 54 22 14 25 13 47 -3z m-7900 -30 c24 -23 -6 -40 -61
-33 -56 6 -73 19 -53 43 16 19 91 13 114 -10z m5120 -45 c0 -18 -48 -32 -66
-20 -14 8 -11 10 21 13 8 0 14 7 12 14 -1 8 5 12 15 10 10 -2 18 -10 18 -17z
m3448 -101 c-3 -13 -14 -20 -29 -20 -17 0 -24 6 -24 20 0 15 7 20 29 20 24 0
28 -3 24 -20z m-3495 -119 c-2 -20 -11 -29 -43 -39 -28 -9 -46 -10 -62 -3 -32
15 -29 28 11 41 19 6 37 17 39 24 4 9 15 12 32 8 21 -4 26 -9 23 -31z m-4818
-601 c0 -11 -4 -20 -10 -20 -5 0 -10 9 -10 20 0 11 5 20 10 20 6 0 10 -9 10
-20z m3765 -4116 c18 -14 19 -27 19 -242 -1 -387 -15 -815 -27 -842 -13 -28
-55 -90 -72 -105 -34 -32 -77 -119 -86 -176 -6 -40 -17 -70 -29 -82 -11 -9
-26 -30 -34 -46 -9 -16 -38 -48 -66 -71 l-51 -43 3 -73 c2 -65 -1 -76 -21 -98
-13 -13 -45 -30 -71 -36 -47 -11 -48 -13 -55 -57 -3 -25 -9 -42 -12 -39 -4 3
-11 -4 -17 -16 -6 -11 -20 -26 -31 -32 -11 -6 -23 -15 -26 -19 -3 -5 -9 -8
-13 -8 -4 1 -19 -20 -33 -46 -14 -26 -30 -51 -37 -55 -6 -4 -45 -5 -86 -2 -75
6 -76 6 -107 -25 -17 -17 -38 -31 -46 -31 -8 0 -18 -7 -21 -15 -4 -10 -17 -15
-38 -14 -35 3 -134 -26 -143 -42 -4 -5 -15 -9 -25 -9 -10 0 -20 -4 -22 -10 -2
-6 -8 -6 -18 0 -12 8 -12 10 5 10 16 0 12 7 -20 40 -34 34 -45 40 -82 40 -34
0 -43 -4 -43 -17 0 -15 -3 -15 -21 4 -26 26 -19 40 27 49 49 9 61 36 38 85 -9
22 -23 39 -31 39 -21 0 -15 34 8 48 l21 13 -23 25 c-20 21 -21 26 -9 34 12 8
9 14 -16 38 -28 26 -32 35 -33 88 0 32 -3 98 -6 145 -5 96 -8 92 83 119 23 7
42 16 42 20 0 4 14 10 30 14 35 7 44 46 10 46 -10 0 -24 8 -29 19 -14 26 4 87
28 94 12 3 20 17 25 45 4 30 10 40 20 36 8 -3 17 -1 21 5 3 6 1 11 -4 11 -18
0 -12 17 14 46 13 14 22 30 19 35 -3 5 -2 9 3 9 4 0 9 14 10 32 1 17 8 35 14
39 7 4 12 27 11 55 -3 60 16 111 42 118 12 3 29 19 39 36 10 16 23 30 29 30 6
0 -4 14 -21 32 -17 18 -29 38 -27 45 3 7 2 12 -2 10 -4 -1 -8 2 -9 8 -2 5 16
8 40 6 78 -4 207 53 241 108 14 21 41 46 62 56 47 22 130 108 139 143 7 30 42
72 60 72 6 0 21 20 33 44 27 56 61 96 81 96 9 0 27 12 40 25 13 14 28 25 35
25 6 0 26 21 45 46 39 52 60 65 116 75 65 11 89 9 110 -7z m-2138 -175 c7 -7
22 -12 35 -13 13 -1 24 -8 26 -19 6 -31 -60 -50 -176 -52 l-103 -2 -33 -37
c-38 -41 -51 -44 -66 -16 -9 17 -8 20 10 20 23 0 27 22 6 39 -8 6 -16 21 -19
32 -7 25 25 39 91 39 26 0 54 5 62 10 21 14 154 12 167 -1z m-494 -19 c5 -4 3
-17 -4 -28 -18 -28 -127 -49 -147 -28 -12 12 -11 16 9 27 13 7 38 21 54 30 29
16 71 16 88 -1z m640 -392 c10 -5 17 -17 15 -26 -3 -13 -20 -19 -77 -25 -43
-5 -80 -14 -89 -23 -9 -9 -24 -13 -37 -10 -15 4 -28 -1 -40 -14 -10 -11 -13
-20 -7 -20 7 0 12 -7 12 -15 0 -8 -9 -15 -20 -15 -12 0 -34 -14 -51 -31 -24
-24 -41 -32 -84 -36 -38 -4 -55 -2 -55 6 0 6 -7 11 -16 11 -11 0 -14 6 -8 23
3 12 11 24 15 25 5 2 9 12 9 22 0 13 -5 17 -19 13 -15 -4 -19 2 -23 34 -5 42
3 53 44 53 20 0 26 -4 22 -15 -7 -18 -2 -18 121 -15 50 1 93 7 96 12 7 11 36
29 84 52 30 14 73 12 108 -6z m-587 -179 c22 -10 52 -19 66 -19 40 0 53 -23
32 -55 -17 -25 -21 -27 -68 -21 -28 4 -58 7 -66 8 -31 1 -153 -13 -163 -19 -5
-3 -6 -22 -3 -43 7 -44 2 -49 -74 -81 -30 -12 -61 -27 -68 -33 -8 -5 -45 -20
-82 -32 -75 -23 -100 -18 -100 20 0 20 4 22 27 18 22 -4 25 -2 19 14 -4 10 -4
15 0 11 4 -4 15 0 25 8 9 9 34 17 55 18 25 2 41 9 48 22 6 11 14 22 17 25 12
10 29 49 29 68 0 22 58 87 95 106 33 17 161 8 211 -15z m824 -430 c0 -9 -23
-72 -45 -124 -7 -16 -18 -48 -25 -70 -7 -22 -19 -47 -26 -56 -8 -9 -12 -18
-10 -20 3 -2 7 -17 10 -33 7 -36 21 -46 68 -46 20 0 38 -6 41 -12 3 -9 11 -6
24 10 11 12 25 22 31 22 15 0 35 -38 28 -55 -3 -8 -1 -29 5 -47 6 -22 6 -34
-1 -36 -5 -2 -10 -22 -9 -45 0 -38 1 -40 11 -19 19 39 28 24 28 -46 0 -64 -2
-70 -25 -80 -14 -6 -25 -16 -25 -22 0 -5 -6 -10 -12 -10 -9 0 -14 -21 -15 -66
-2 -71 -7 -80 -55 -91 -32 -6 -34 -11 -11 -28 10 -8 18 -32 21 -68 7 -87 -3
-120 -45 -150 l-37 -27 -21 20 c-27 26 -34 18 -28 -31 4 -27 2 -39 -7 -39 -7
0 -10 -7 -6 -15 10 -26 -25 -31 -45 -7 -12 16 -28 22 -58 22 l-40 0 0 -90 c1
-72 4 -90 16 -90 8 0 13 -7 11 -17 -3 -14 -12 -17 -51 -14 -37 2 -47 -1 -47
-13 0 -19 -40 -22 -58 -4 -17 17 4 48 33 48 24 0 25 3 25 60 l0 60 -40 0 -40
0 0 45 0 45 41 0 c41 0 41 0 34 33 -4 17 -14 37 -23 44 -10 7 -23 18 -31 24
-10 9 -15 9 -22 -2 -13 -22 -19 -6 -10 27 5 16 10 23 10 17 1 -8 16 -13 41
-13 38 0 40 2 40 29 0 16 -5 31 -11 33 -9 3 -9 10 0 27 13 23 12 23 -33 20
-38 -4 -46 -1 -46 13 0 19 -49 79 -50 61 0 -7 -5 -13 -10 -13 -6 0 -9 20 -7
48 2 37 7 49 25 57 12 5 22 13 22 17 0 5 6 8 14 8 9 0 19 20 27 50 9 36 18 50
30 50 24 0 27 13 21 107 -6 106 6 139 56 148 46 9 75 40 61 66 -6 13 -6 19 1
19 5 0 10 11 10 25 0 15 6 25 14 25 9 0 16 12 18 28 2 19 8 26 21 24 9 -2 17
2 17 9 0 6 20 31 45 56 25 24 45 47 45 51 0 4 9 21 19 39 15 24 25 30 40 26
12 -3 21 -9 21 -14z m-944 -48 c-3 -5 -17 -11 -31 -13 -20 -4 -23 -3 -14 8 12
15 54 20 45 5z m-194 -17 c56 -10 59 -52 8 -124 -11 -16 -20 -34 -20 -40 0 -7
-16 -46 -35 -86 -32 -66 -39 -74 -80 -90 -25 -9 -45 -21 -45 -25 0 -5 -10 -9
-22 -9 -36 0 -101 -46 -137 -97 -40 -57 -135 -140 -182 -160 -40 -17 -148 -33
-154 -23 -3 4 -6 27 -8 52 -5 59 -18 79 -66 106 l-41 23 0 -41 c0 -23 -7 -57
-16 -76 -13 -27 -22 -34 -45 -34 -15 0 -31 -4 -34 -10 -3 -5 -26 -10 -51 -10
-24 0 -44 -4 -44 -10 0 -16 -27 -12 -34 5 -3 8 -15 15 -26 15 -11 0 -20 4 -20
9 0 5 -15 16 -33 25 -53 25 -89 66 -82 93 6 27 -22 69 -58 87 -32 17 -34 44
-3 56 30 11 78 13 255 10 124 -2 125 -2 144 24 10 15 28 26 41 26 13 0 36 15
54 36 18 20 64 52 105 71 39 19 79 40 87 47 8 7 34 18 58 26 35 11 49 11 83 0
23 -8 43 -19 46 -25 2 -7 19 -12 38 -13 27 -1 35 3 40 21 20 70 50 103 124
134 55 22 68 23 153 7z m-1689 -384 c21 -25 21 -34 2 -50 -17 -14 -9 -69 13
-86 13 -9 11 -12 -7 -17 -13 -3 -29 -3 -36 -1 -13 6 -30 49 -26 71 1 6 -13 23
-31 37 -24 19 -28 26 -15 26 9 0 17 6 17 14 0 30 59 34 83 6z m3034 -147 c-2
-21 -4 -6 -4 32 0 39 2 55 4 38 2 -18 2 -50 0 -70z m2484 77 c5 0 9 -6 9 -14
0 -8 5 -16 11 -18 8 -3 7 -13 -4 -33 -11 -20 -16 -24 -17 -13 0 11 -5 15 -15
11 -16 -6 -55 22 -55 40 0 15 33 37 48 32 8 -3 18 -5 23 -5z m-5315 -72 c6
-10 14 -68 9 -68 -1 0 -11 8 -23 18 -14 13 -19 26 -15 40 6 24 18 28 29 10z
m-111 -28 c3 -5 1 -10 -4 -10 -6 0 -11 5 -11 10 0 6 2 10 4 10 3 0 8 -4 11
-10z m5481 -89 c1 -32 -1 -38 -16 -34 -12 3 -16 12 -13 31 11 66 26 67 29 3z
m-5600 -66 c-25 -19 -52 -19 -60 0 -4 12 3 15 37 15 39 -1 41 -2 23 -15z m31
-7 c-3 -8 -6 -5 -6 6 -1 11 2 17 5 13 3 -3 4 -12 1 -19z m5592 -15 c2 -10 2
-40 2 -68 -2 -79 7 -118 26 -111 19 8 43 -11 43 -34 0 -9 15 -37 34 -61 31
-41 38 -58 53 -131 3 -15 11 -33 19 -39 8 -6 14 -23 14 -38 0 -15 12 -40 29
-58 23 -25 30 -45 36 -95 8 -79 23 -118 45 -118 20 0 80 -71 80 -95 0 -19 20
-41 63 -71 27 -18 30 -25 30 -73 -1 -36 6 -65 19 -87 11 -19 17 -34 13 -34 -3
0 2 -11 13 -25 12 -15 18 -34 15 -45 -6 -23 22 -60 45 -60 34 0 52 -31 52 -89
0 -64 3 -68 48 -100 19 -13 31 -29 28 -36 -8 -22 17 -75 36 -75 10 0 24 -13
33 -30 8 -16 24 -34 34 -39 22 -12 36 -108 22 -155 -25 -82 -41 -139 -39 -140
2 -1 12 -7 23 -14 11 -7 34 -19 52 -27 18 -8 51 -33 73 -55 34 -34 40 -44 30
-55 -10 -12 -9 -15 4 -15 10 0 16 -9 16 -25 0 -14 -4 -25 -9 -25 -5 0 -11 -7
-14 -15 -9 -21 54 -115 76 -115 37 0 77 -33 77 -61 0 -19 6 -30 19 -34 21 -6
26 -17 36 -82 4 -24 11 -43 16 -43 5 0 9 -18 9 -40 0 -40 0 -40 38 -40 45 0
62 -14 62 -52 0 -15 4 -28 8 -28 5 0 14 -11 20 -25 9 -20 9 -33 -3 -61 -13
-31 -13 -36 0 -41 8 -3 21 -3 29 0 7 3 18 1 23 -4 6 -6 20 -6 37 1 35 13 106
13 106 0 0 -5 6 -10 14 -10 7 0 19 -7 26 -15 11 -13 10 -18 -9 -32 -15 -10
-21 -22 -18 -34 3 -11 0 -19 -6 -19 -7 0 0 -12 16 -25 32 -29 35 -55 7 -55
-23 0 -51 24 -69 58 -6 12 -18 22 -26 22 -8 0 -15 6 -15 13 -1 12 -65 47 -87
47 -6 0 -16 -13 -23 -30 -8 -18 -20 -30 -31 -30 -21 0 -24 -11 -8 -27 13 -13
-7 -50 -31 -56 -8 -2 4 -2 28 1 41 4 60 -12 27 -24 -20 -8 -29 -42 -15 -58 6
-8 14 -33 18 -57 5 -28 13 -45 22 -45 8 -1 23 -2 33 -3 27 -2 79 -117 71 -158
-5 -27 -1 -37 22 -58 16 -15 29 -32 29 -38 0 -6 14 -12 31 -13 44 -2 74 -13
71 -27 -3 -18 92 -26 109 -9 8 8 30 14 49 14 43 0 45 17 7 56 -42 43 -77 102
-60 102 9 1 7 5 -4 14 -10 7 -18 25 -18 39 0 30 -42 131 -59 141 -17 11 -13
38 11 63 26 28 48 30 48 4 0 -21 26 -31 78 -31 32 0 79 -25 112 -59 18 -19
100 -160 100 -172 0 -4 18 -16 40 -25 22 -10 47 -28 55 -40 12 -19 12 -24 -1
-43 -9 -12 -26 -21 -42 -21 -33 0 -64 -19 -44 -27 10 -4 10 -8 1 -19 -14 -17
-5 -44 16 -44 9 0 30 8 48 17 18 9 55 18 84 20 56 3 73 -10 73 -56 0 -13 8
-21 23 -23 12 -2 22 -7 23 -13 4 -35 31 -77 64 -99 22 -14 43 -26 46 -26 4 0
16 -7 26 -17 15 -13 18 -32 18 -104 0 -86 -1 -89 -25 -95 -14 -3 -25 -10 -25
-15 0 -5 -6 -9 -13 -9 -13 0 -47 -50 -47 -69 0 -6 7 -11 15 -11 9 0 15 -9 15
-25 0 -23 2 -24 45 -19 62 9 102 -25 130 -110 15 -45 25 -62 40 -64 11 -1 29
-15 39 -31 11 -16 26 -28 34 -27 9 0 18 -10 22 -24 6 -25 6 -25 12 -2 8 29 48
31 48 2 0 -11 7 -20 15 -20 11 0 15 -11 15 -36 0 -22 4 -33 11 -29 15 10 61
-4 54 -15 -3 -6 1 -10 9 -10 19 0 31 -41 21 -78 -3 -15 -9 -42 -12 -59 -5 -30
-3 -33 21 -33 18 0 30 -8 40 -28 13 -26 13 -33 -2 -63 -9 -19 -27 -38 -39 -44
-28 -12 -30 -32 -3 -40 11 -3 20 -15 20 -26 0 -10 5 -19 10 -19 6 0 10 -37 10
-92 0 -50 -3 -88 -7 -84 -4 3 -8 14 -9 24 -8 56 -22 114 -23 95 0 -13 -5 -23
-11 -23 -5 0 -10 -9 -10 -19 0 -12 -9 -21 -25 -25 -14 -4 -25 -13 -25 -21 0
-8 -7 -15 -15 -15 -8 0 -15 7 -15 15 0 9 -7 18 -15 21 -19 8 -19 43 0 50 11 4
14 22 14 65 -1 51 -5 62 -27 79 -14 11 -36 23 -50 27 -34 8 -100 -14 -107 -36
-3 -11 -12 -22 -20 -25 -11 -4 -15 -21 -15 -61 0 -52 -1 -55 -25 -55 -28 0
-48 29 -43 63 1 12 -1 27 -4 33 -4 6 4 16 20 24 l27 12 -23 11 c-12 6 -21 18
-20 26 2 9 -7 26 -18 37 -19 19 -24 20 -47 7 -15 -7 -44 -15 -64 -16 -33 -2
-38 1 -41 21 -2 12 -8 22 -13 22 -13 0 -11 31 5 62 14 26 13 29 -5 39 -16 8
-25 7 -38 -5 -30 -28 -68 -20 -87 17 -9 17 -28 43 -41 57 -16 16 -23 32 -20
47 2 13 0 23 -5 23 -6 0 -9 38 -6 94 2 67 -1 99 -9 107 -7 7 -13 19 -13 26 0
7 -9 13 -19 13 -15 0 -18 5 -13 23 3 12 13 27 21 34 9 6 16 17 16 25 0 7 10
12 23 11 12 -2 22 2 22 8 0 6 7 9 15 5 19 -7 46 20 39 39 -4 8 -17 15 -30 15
-13 0 -24 6 -24 13 0 8 -17 22 -37 33 -21 10 -41 23 -44 27 -3 4 -12 1 -19 -7
-15 -19 -30 -12 -30 14 0 21 -27 40 -56 40 -16 0 -16 -1 -1 -18 27 -30 21 -58
-15 -72 -18 -6 -41 -16 -50 -21 -22 -11 -68 -12 -68 0 0 5 -3 22 -6 38 -5 25
-2 31 15 36 25 6 27 29 6 47 -10 8 -15 30 -15 62 0 45 -2 50 -19 45 -13 -3
-18 0 -15 8 3 7 -6 22 -20 33 -14 11 -26 25 -26 31 0 11 -26 16 -62 13 -14 -1
-18 6 -18 38 l0 40 -55 0 c-30 0 -55 2 -55 4 0 26 14 33 60 28 l50 -5 0 37 0
36 -42 -6 c-79 -10 -88 -14 -88 -34 0 -26 -17 -34 -70 -32 -85 5 -152 23 -157
42 -3 10 -15 21 -26 24 -12 3 -31 19 -42 36 -11 16 -28 30 -37 30 -10 0 -18 4
-18 9 0 5 -13 11 -30 14 -28 6 -42 18 -73 60 -8 11 -30 20 -57 23 -25 3 -49 9
-53 13 -4 4 -3 37 2 72 9 57 9 65 -8 84 -26 27 -43 95 -34 135 4 23 3 31 -5
26 -15 -9 -25 28 -17 63 6 26 4 29 -14 24 -20 -5 -21 -1 -22 58 0 35 -3 56 -7
47 -6 -15 -9 -15 -29 2 -19 15 -23 28 -23 78 0 41 -5 63 -15 72 -9 8 -15 30
-15 56 0 24 -4 44 -9 44 -5 0 -11 12 -13 27 -3 29 -23 39 -46 25 -10 -7 -11
-24 -4 -75 5 -37 5 -67 0 -67 -4 0 -8 -16 -8 -35 0 -28 4 -35 19 -35 15 0 20
-9 24 -42 8 -60 2 -342 -7 -356 -4 -7 -2 -45 4 -85 7 -49 8 -73 0 -75 -5 -2
-10 -10 -10 -18 0 -8 -7 -17 -15 -20 -8 -4 -15 -18 -15 -32 0 -17 -13 -37 -37
-59 -30 -28 -41 -33 -57 -24 -38 18 -61 20 -79 7 -14 -11 -16 -22 -11 -55 4
-22 8 -41 11 -41 2 0 21 9 43 20 50 25 53 25 85 -4 l26 -24 -26 -30 c-14 -17
-36 -32 -48 -34 -26 -4 -67 19 -67 37 0 8 -9 10 -25 7 -17 -3 -27 1 -31 12 -3
9 -12 16 -18 16 -14 0 -34 134 -41 267 -2 44 -10 81 -20 97 -14 21 -18 60 -21
215 -3 117 -10 205 -17 228 -14 39 -12 73 3 73 4 0 4 17 0 38 -9 39 -5 313 6
395 4 31 2 47 -5 47 -14 0 -15 47 -1 55 6 3 10 15 10 26 0 10 5 19 10 19 18 0
11 46 -15 94 -13 25 -21 46 -16 46 4 0 6 11 3 25 -2 14 3 40 12 59 9 19 16 43
16 55 0 12 6 21 14 21 15 0 39 25 42 45 1 7 5 22 9 34 4 15 -1 28 -20 47 -20
19 -23 29 -14 34 12 8 10 18 -13 55 -33 52 -71 95 -84 95 -8 0 -17 8 -21 18
-3 9 -14 26 -23 37 -16 18 -24 61 -34 180 -3 47 -28 138 -42 161 -31 46 -54
138 -54 211 0 41 -4 73 -10 73 -5 0 -13 12 -16 28 -4 15 -17 45 -30 67 -19 34
-35 85 -60 195 -3 14 -8 43 -10 65 -2 22 -10 70 -17 106 -9 43 -11 85 -7 115
8 51 4 74 -11 74 -5 0 -9 7 -9 15 0 9 -7 18 -15 21 -21 8 -19 16 10 50 18 20
21 30 12 36 -7 4 6 8 29 8 31 0 41 -4 43 -17z m-1749 -238 c16 -20 6 -43 -25
-55 -32 -12 -52 -4 -59 22 -10 39 57 65 84 33z m-269 -104 c23 -19 23 -21 7
-37 -15 -16 -21 -16 -43 -4 -36 19 -32 54 6 59 4 1 17 -8 30 -18z m-1197 -217
c23 -9 20 -47 -4 -62 -18 -11 -21 -9 -30 13 -19 50 -9 65 34 49z m-123 -74 c5
0 9 -17 9 -39 0 -30 -4 -40 -19 -44 -16 -4 -21 3 -30 36 -11 45 -6 61 16 53 8
-3 19 -6 24 -6z m178 -30 c22 0 38 -25 39 -63 1 -20 -2 -37 -6 -37 -4 0 -13
-14 -19 -31 -10 -25 -17 -30 -33 -26 -11 3 -20 1 -20 -4 0 -11 -30 -12 -31 -1
-1 4 -2 23 -4 42 -2 21 -11 41 -23 50 -20 15 -20 16 21 58 36 36 43 40 53 27
6 -8 17 -15 23 -15z m2819 -648 c32 -32 42 -73 33 -132 -5 -30 -9 -45 -10 -32
0 13 -5 20 -11 17 -7 -4 -4 -18 9 -38 10 -18 26 -54 36 -81 21 -64 6 -142 -30
-156 -27 -10 -71 -69 -67 -88 2 -8 -2 -20 -9 -28 -16 -19 -10 -23 41 -32 60
-10 81 -46 73 -124 -4 -47 -2 -63 16 -92 21 -33 29 -79 35 -206 3 -55 27 -155
46 -190 21 -39 3 -156 -26 -167 -8 -3 -14 -15 -14 -27 0 -16 9 -25 35 -35 58
-21 67 -35 64 -110 -2 -36 0 -72 4 -78 8 -12 28 -134 27 -163 0 -8 -5 -62 -10
-120 -8 -75 -8 -117 0 -150 21 -83 23 -111 9 -138 -12 -24 -24 -37 -65 -71 -6
-5 -18 -3 -29 5 -13 10 -18 28 -19 71 -1 44 -8 66 -26 91 -13 17 -29 32 -36
32 -19 0 -26 71 -9 97 13 19 13 26 3 43 -7 11 -21 20 -30 20 -14 0 -18 8 -18
39 0 22 5 41 13 44 9 3 9 9 1 23 -7 13 -25 20 -53 22 -40 3 -41 2 -41 -28 0
-18 -9 -43 -20 -57 -12 -15 -20 -41 -20 -62 0 -25 -6 -41 -20 -51 -11 -8 -20
-24 -20 -37 0 -12 -4 -24 -9 -27 -4 -3 -11 -23 -15 -44 -6 -43 -35 -82 -59
-82 -20 0 -34 -48 -43 -147 -5 -54 -11 -73 -22 -73 -8 0 -12 -6 -8 -15 9 -26
-3 -42 -45 -55 -36 -12 -39 -16 -39 -52 0 -27 -4 -38 -15 -38 -8 0 -15 -5 -15
-10 0 -14 -70 -84 -92 -93 -28 -10 -21 -77 7 -77 8 0 24 -14 36 -32 20 -28 23
-29 29 -12 7 18 7 17 18 -3 19 -35 15 -53 -12 -53 -22 0 -23 -3 -23 -62 -1
-35 -1 -72 -2 -83 0 -11 0 -35 0 -53 1 -32 2 -32 19 -17 17 15 19 15 25 -4 8
-26 -1 -42 -19 -35 -7 3 -16 -2 -19 -10 -4 -9 -2 -16 3 -16 6 0 10 -7 10 -15
0 -12 -12 -15 -57 -13 -50 1 -52 2 -15 5 23 2 42 9 42 15 0 6 -17 8 -47 4
-121 -16 -155 -18 -149 -7 5 7 -2 11 -18 11 -14 0 -26 -4 -26 -10 0 -5 8 -10
18 -10 14 0 14 -2 3 -9 -9 -6 -19 -4 -28 5 -22 22 -78 17 -109 -9 -31 -27 -26
-47 12 -47 19 0 24 -5 24 -24 0 -13 -7 -29 -15 -36 -8 -7 -15 -19 -15 -26 0
-8 -10 -14 -23 -14 -28 0 -47 -17 -47 -42 0 -28 -19 -21 -59 21 -20 21 -47 41
-61 43 -14 3 -29 6 -35 8 -34 9 -64 -1 -67 -22 -2 -15 -9 -21 -18 -19 -8 3
-32 5 -53 6 -76 3 -89 45 -94 308 l-4 189 36 32 c26 24 37 45 44 80 5 25 15
54 23 64 16 17 52 105 83 197 9 28 31 66 50 85 18 19 40 49 48 66 9 17 23 36
31 43 9 8 16 29 16 48 0 27 10 44 47 83 33 34 54 68 69 112 12 35 26 77 32 93
6 17 16 50 22 75 15 56 55 140 96 203 18 27 36 72 42 105 6 31 15 83 20 114 8
45 23 73 65 130 30 40 59 89 65 108 6 19 21 68 33 108 12 40 25 75 30 78 20
12 69 155 69 200 0 18 7 45 15 60 12 22 14 45 9 93 -6 56 -4 66 13 80 11 9 43
41 71 73 l50 56 -5 61 c-5 54 -3 65 20 98 34 49 87 154 87 173 1 19 19 43 45
58 25 14 22 15 43 -6z m1370 -830 c2 -7 -3 -12 -12 -12 -9 0 -16 7 -16 16 0
17 22 14 28 -4z m-1540 -1384 c-7 -19 -38 -22 -38 -4 0 10 9 16 21 16 12 0 19
-5 17 -12z m909 -20 c-3 -8 -6 -5 -6 6 -1 11 2 17 5 13 3 -3 4 -12 1 -19z
m1016 -55 c-18 -2 -48 -2 -65 0 -18 2 -4 4 32 4 36 0 50 -2 33 -4z m787 -983
c13 -9 13 -11 0 -20 -24 -16 -40 -12 -40 10 0 22 16 26 40 10z m387 -286 c-3
-3 -12 -4 -19 -1 -8 3 -5 6 6 6 11 1 17 -2 13 -5z m2304 -1364 c5 0 9 -7 9
-15 0 -19 -44 -20 -59 -1 -10 12 -8 19 11 38 l23 23 3 -22 c2 -13 8 -23 13
-23z m424 -77 c57 -5 105 -26 105 -44 0 -10 -70 -30 -82 -23 -5 3 -21 1 -36
-4 -30 -11 -126 -23 -118 -14 9 8 -14 32 -30 32 -8 0 -14 -7 -14 -15 0 -21
-26 -19 -51 6 -24 24 -21 44 7 44 10 0 22 5 27 10 4 6 10 5 15 -3 6 -9 13 -7
28 8 14 15 28 19 54 15 19 -3 62 -8 95 -12z"/>
<path d="M16512 25503 c-16 -3 -22 -9 -18 -20 3 -8 6 -22 6 -31 0 -36 16 -46
49 -32 35 14 50 52 31 75 -12 15 -24 16 -68 8z"/>
<path d="M7601 12994 c0 -11 3 -14 6 -6 3 7 2 16 -1 19 -3 4 -6 -2 -5 -13z"/>
<path d="M7920 12110 c0 -5 -6 -10 -14 -10 -8 0 -29 -12 -46 -26 -27 -23 -30
-31 -24 -58 3 -17 8 -33 10 -35 2 -2 32 -7 66 -10 52 -5 63 -9 63 -24 0 -23
22 -37 58 -37 33 0 49 28 23 42 -12 7 -14 14 -7 27 8 14 0 28 -37 68 -49 52
-92 82 -92 63z"/>
<path d="M8237 11954 c18 -18 24 -28 16 -31 -7 -3 -13 -11 -13 -19 0 -20 74
-19 91 2 21 25 -1 49 -50 52 -22 2 -41 7 -41 13 0 5 -7 9 -16 9 -10 0 -7 -8
13 -26z"/>
<path d="M10747 8933 c-15 -14 -5 -38 27 -68 37 -33 49 -34 84 -2 29 27 30 61
2 52 -11 -4 -34 1 -52 9 -34 17 -51 20 -61 9z"/>
<path d="M10721 8914 c0 -11 3 -14 6 -6 3 7 2 16 -1 19 -3 4 -6 -2 -5 -13z"/>
<path d="M9870 9466 c0 -8 5 -18 10 -21 6 -3 10 -1 10 4 0 6 7 11 15 11 8 0
15 5 15 10 0 6 -11 10 -25 10 -15 0 -25 -6 -25 -14z"/>
<path d="M9853 8941 c-28 -4 -55 -10 -60 -14 -14 -15 13 -40 55 -53 24 -6 49
-18 57 -24 12 -10 20 -9 39 3 32 22 43 67 20 84 -19 14 -28 14 -111 4z"/>
<path d="M9840 8694 c0 -8 5 -12 10 -9 6 4 8 11 5 16 -9 14 -15 11 -15 -7z"/>
<path d="M14081 6168 c0 -9 -4 -25 -7 -35 -5 -17 -5 -17 6 0 6 10 9 25 7 35
-4 15 -5 15 -6 0z"/>
<path d="M14880 4750 c0 -5 5 -10 11 -10 5 0 7 5 4 10 -3 6 -8 10 -11 10 -2 0
-4 -4 -4 -10z"/>
<path d="M15502 4410 c-13 -22 -16 -79 -4 -96 4 -6 14 -11 22 -11 8 0 22 -2
30 -4 9 -3 16 5 18 19 2 12 -2 22 -7 22 -7 0 -9 10 -5 26 5 20 2 26 -15 31
-13 3 -20 11 -17 19 8 21 -8 17 -22 -6z"/>
<path d="M9420 8333 c0 -5 5 -15 10 -23 8 -12 10 -11 10 8 0 12 -4 22 -10 22
-5 0 -10 -3 -10 -7z"/>
<path d="M12350 6646 c0 -23 -7 -38 -21 -48 -18 -11 -20 -20 -14 -46 3 -18 13
-32 20 -32 8 0 19 -8 24 -17 10 -17 10 -17 11 0 0 9 6 17 13 17 22 0 57 39 57
64 0 16 -9 26 -35 36 -26 10 -35 20 -35 37 0 13 -4 23 -10 23 -5 0 -10 -15
-10 -34z"/>
<path d="M12357 5877 c-3 -8 -1 -20 4 -28 6 -10 9 -7 9 14 0 29 -5 35 -13 14z"/>
<path d="M12000 5150 c0 -5 7 -10 15 -10 8 0 15 5 15 10 0 6 -7 10 -15 10 -8
0 -15 -4 -15 -10z"/>
<path d="M11580 4430 c0 -5 5 -10 10 -10 6 0 10 5 10 10 0 6 -4 10 -10 10 -5
0 -10 -4 -10 -10z"/>
<path d="M21070 26390 c0 -30 1 -31 38 -25 63 11 73 16 70 33 -2 13 -16 18
-56 20 l-52 3 0 -31z"/>
<path d="M23620 26415 c0 -20 45 -87 63 -95 64 -26 245 -38 462 -31 201 7 224
10 265 30 57 29 90 59 90 83 0 17 -21 18 -440 18 -242 0 -440 -2 -440 -5z"/>
<path d="M25560 26396 c0 -27 49 -83 102 -115 20 -12 48 -41 62 -65 27 -47
146 -155 199 -182 18 -9 35 -21 38 -26 3 -5 39 -18 80 -29 63 -17 117 -21 369
-25 256 -5 303 -8 353 -25 31 -10 64 -19 71 -19 8 0 42 -26 75 -57 64 -62 73
-70 112 -93 15 -8 48 -30 74 -47 43 -29 57 -33 118 -33 38 0 123 -7 190 -16
179 -23 199 -20 339 62 69 41 139 53 383 68 l201 13 70 55 c82 63 164 138 164
149 0 5 15 24 33 43 17 18 51 55 75 80 53 58 107 96 138 96 24 0 24 2 24 95
l0 95 -1635 0 -1635 0 0 -24z"/>
<path d="M19400 25480 c-19 -5 -38 -6 -43 -3 -11 7 -47 -26 -47 -44 0 -33 94
-82 160 -83 23 0 41 67 27 99 -19 43 -30 46 -97 31z"/>
<path d="M19250 25390 c0 -5 7 -10 15 -10 8 0 15 5 15 10 0 6 -7 10 -15 10 -8
0 -15 -4 -15 -10z"/>
<path d="M18880 25270 c0 -16 5 -30 10 -30 6 0 10 14 10 30 0 17 -4 30 -10 30
-5 0 -10 -13 -10 -30z"/>
<path d="M18643 24940 c0 -25 2 -35 4 -22 2 12 2 32 0 45 -2 12 -4 2 -4 -23z"/>
<path d="M18000 24601 c0 -11 9 -23 21 -26 26 -9 29 -5 18 23 -10 27 -39 29
-39 3z"/>
<path d="M18020 24435 c-7 -8 -16 -13 -20 -10 -14 8 -40 -6 -40 -22 0 -8 9
-17 20 -20 11 -3 20 -9 20 -14 0 -17 29 -9 40 11 6 11 17 20 25 20 20 0 19 13
-3 33 -23 21 -26 21 -42 2z"/>
<path d="M17710 24005 c0 -8 5 -15 10 -15 6 0 10 7 10 15 0 8 -4 15 -10 15 -5
0 -10 -7 -10 -15z"/>
<path d="M17520 23650 c0 -5 5 -10 10 -10 6 0 10 5 10 10 0 6 -4 10 -10 10 -5
0 -10 -4 -10 -10z"/>
<path d="M15784 21746 c-10 -26 4 -46 31 -46 23 0 26 4 23 28 -3 31 -44 45
-54 18z"/>
<path d="M17500 21190 c0 -5 5 -10 10 -10 6 0 10 5 10 10 0 6 -4 10 -10 10 -5
0 -10 -4 -10 -10z"/>
<path d="M15734 21118 c-4 -14 -1 -25 10 -33 9 -7 16 -18 16 -24 0 -7 8 -20
17 -29 16 -16 13 -17 -42 -22 -55 -5 -59 -7 -67 -35 -12 -41 -11 -149 2 -153
5 -2 10 -12 10 -23 0 -16 7 -19 40 -19 l40 0 0 40 c0 22 4 40 8 40 14 0 32 48
34 88 1 33 2 32 8 -13 l7 -50 1 48 c1 27 7 47 13 47 6 0 -4 17 -21 37 -19 22
-28 39 -21 41 12 4 15 40 5 66 -9 24 -51 20 -60 -6z m-34 -147 c0 -6 -4 -13
-10 -16 -5 -3 -10 1 -10 9 0 9 5 16 10 16 6 0 10 -4 10 -9z"/>
<path d="M15670 20755 c0 -20 17 -38 24 -26 4 6 14 11 23 11 12 0 14 -9 8 -48
-5 -37 -3 -51 8 -61 8 -6 13 -19 11 -29 -2 -9 0 -23 5 -30 7 -11 12 -12 29 -1
16 10 19 17 10 32 -5 11 -8 50 -6 88 l4 67 -58 4 c-34 2 -58 -1 -58 -7z"/>
<path d="M16188 20650 c4 -60 4 -61 24 -44 10 10 17 26 15 36 -3 9 0 19 7 21
17 6 -6 41 -30 45 -17 2 -19 -3 -16 -58z"/>
<path d="M15880 20559 c0 -8 -10 -9 -31 -5 -27 5 -32 3 -42 -24 -6 -17 -15
-30 -19 -30 -4 0 -8 -18 -8 -40 0 -38 2 -40 30 -40 17 0 30 5 30 11 0 6 10 9
23 7 20 -3 22 -8 20 -50 -1 -40 2 -48 16 -48 11 0 25 -16 36 -41 17 -37 20
-39 27 -20 4 12 14 21 23 21 10 0 15 10 15 31 0 45 47 89 96 89 l37 0 -5 51
c-3 27 -10 55 -16 61 -14 14 -72 0 -72 -18 0 -8 -4 -14 -10 -14 -5 0 -10 -18
-10 -40 0 -22 -4 -40 -10 -40 -5 0 -10 5 -10 10 0 6 -18 10 -40 10 -22 0 -40
2 -40 5 0 3 12 17 28 30 15 13 22 25 16 25 -7 0 -14 8 -16 18 -6 21 -68 59
-68 41z"/>
<path d="M20089 20543 c-18 -16 -42 -37 -53 -49 -41 -41 -74 -55 -142 -60 -98
-7 -140 -22 -169 -60 -24 -32 -24 -33 -6 -55 16 -21 28 -23 135 -27 87 -3 119
-8 123 -18 3 -8 13 -14 22 -14 12 0 20 -16 29 -67 7 -37 19 -81 27 -97 21 -44
133 -156 149 -150 8 3 17 0 21 -5 3 -6 11 -8 17 -5 6 4 8 2 5 -3 -9 -14 19
-37 33 -28 5 3 14 -5 20 -19 6 -17 17 -26 31 -26 15 0 19 -4 15 -16 -9 -23 4
-64 20 -64 8 0 14 -8 14 -19 0 -26 62 -71 99 -71 55 0 54 68 -2 97 l-32 16 30
8 c16 5 45 5 62 0 30 -9 59 2 31 11 -6 2 3 10 20 17 35 15 40 32 17 51 -8 7
-15 19 -15 26 0 8 -4 14 -10 14 -22 0 -8 26 23 42 47 24 58 26 155 38 48 6 99
15 114 21 27 11 78 81 92 127 4 12 12 22 17 22 5 0 9 9 9 20 0 11 -5 17 -13
15 -6 -3 -17 5 -23 17 -8 18 -6 31 10 63 12 21 29 48 40 58 21 22 17 80 -7
104 -20 20 -63 7 -86 -26 -24 -33 -67 -38 -95 -12 -13 11 -41 21 -71 24 -47 5
-140 17 -265 37 -51 8 -57 6 -78 -16 -29 -31 -82 -34 -82 -4 0 12 -7 20 -18
20 -9 0 -22 10 -27 22 -13 29 -82 68 -121 68 -20 0 -44 -10 -65 -27z m336
-712 c-3 -6 -11 -8 -17 -5 -6 4 -5 9 3 15 16 10 23 4 14 -10z"/>
<path d="M16160 20330 c0 -5 5 -10 10 -10 6 0 10 5 10 10 0 6 -4 10 -10 10 -5
0 -10 -4 -10 -10z"/>
<path d="M15730 20190 c0 -5 7 -10 15 -10 8 0 15 5 15 10 0 6 -7 10 -15 10 -8
0 -15 -4 -15 -10z"/>
<path d="M16145 20170 c3 -5 8 -10 11 -10 2 0 4 5 4 10 0 6 -5 10 -11 10 -5 0
-7 -4 -4 -10z"/>
<path d="M16097 20106 c-17 -13 -16 -14 2 -19 21 -5 46 15 34 26 -9 10 -15 8
-36 -7z"/>
<path d="M26268 20088 c-6 -16 1 -38 11 -38 9 0 8 37 -1 45 -3 3 -8 0 -10 -7z"/>
<path d="M16200 20008 c0 -27 11 -48 26 -48 19 0 17 10 -6 40 -15 19 -20 21
-20 8z"/>
<path d="M16166 19981 c-4 -7 -5 -15 -2 -18 9 -9 19 4 14 18 -4 11 -6 11 -12
0z"/>
<path d="M26432 19904 c-50 -35 -46 -80 11 -114 38 -24 91 -25 140 -5 39 16
39 21 7 80 -9 17 -27 36 -41 42 -34 18 -90 16 -117 -3z"/>
<path d="M20260 19856 c0 -9 5 -16 10 -16 6 0 10 4 10 9 0 6 -4 13 -10 16 -5
3 -10 -1 -10 -9z"/>
<path d="M16493 19635 c-18 -13 -23 -25 -21 -58 l1 -42 7 45 7 45 1 -42 c2
-49 22 -73 62 -73 21 0 33 8 48 34 30 51 36 76 19 76 -9 0 -17 4 -19 10 -6 18
-82 22 -105 5z"/>
<path d="M16926 19551 c-17 -19 -13 -46 7 -54 21 -8 78 5 84 19 6 16 -34 53
-58 54 -9 0 -23 -8 -33 -19z"/>
<path d="M17080 19500 c0 -5 14 -10 30 -10 17 0 30 5 30 10 0 6 -13 10 -30 10
-16 0 -30 -4 -30 -10z"/>
<path d="M16720 19368 c0 -10 -7 -18 -15 -18 -11 0 -15 -11 -15 -40 l0 -39 40
3 c51 4 55 8 55 56 0 47 -11 60 -29 35 -13 -18 -14 -18 -24 1 -10 17 -11 17
-12 2z"/>
<path d="M16190 19000 c0 -224 -2 -260 -15 -260 -8 0 -15 -9 -15 -20 0 -11 4
-20 8 -20 5 0 17 -18 27 -40 25 -56 45 -52 45 9 0 30 -5 52 -12 55 -10 5 -10
7 0 12 9 4 12 67 12 265 l0 259 -25 0 -25 0 0 -260z"/>
<path d="M16160 17310 c0 -5 7 -10 15 -10 8 0 15 5 15 10 0 6 -7 10 -15 10 -8
0 -15 -4 -15 -10z"/>
<path d="M16300 16110 c0 -5 5 -10 10 -10 6 0 10 5 10 10 0 6 -4 10 -10 10 -5
0 -10 -4 -10 -10z"/>
<path d="M16608 15922 c-32 -15 -35 -20 -26 -36 7 -13 7 -20 -1 -26 -8 -4 -1
-17 21 -39 28 -27 33 -29 38 -15 6 16 9 15 28 -4 13 -13 35 -22 52 -22 17 0
30 -4 30 -10 0 -15 22 -12 68 10 22 11 46 20 52 20 5 0 10 18 10 40 0 36 -3
41 -40 60 -41 21 -120 27 -120 9 0 -6 -12 -9 -27 -7 -16 2 -28 9 -28 17 0 21
-15 22 -57 3z"/>
<path d="M16398 15515 c-6 -30 10 -33 40 -6 24 20 20 31 -14 31 -15 0 -23 -7
-26 -25z"/>
<path d="M18950 14648 c0 -4 -11 -8 -25 -8 -14 0 -25 -4 -25 -10 0 -5 13 -10
29 -10 16 0 31 -4 33 -9 6 -17 52 -21 71 -7 16 12 17 17 5 35 -10 17 -22 21
-50 19 -21 -1 -38 -6 -38 -10z"/>
<path d="M18996 14524 c-12 -30 -6 -53 19 -79 14 -14 30 -25 35 -25 6 0 10 -4
10 -10 0 -5 9 -10 20 -10 41 0 38 55 -4 105 -29 33 -71 43 -80 19z"/>
<path d="M19223 14245 c0 -8 6 -15 13 -15 8 0 11 6 8 15 -4 8 -9 15 -13 15 -4
0 -8 -7 -8 -15z"/>
<path d="M19264 14236 c-3 -15 -1 -44 6 -65 6 -20 10 -45 8 -56 -2 -15 6 -21
37 -28 44 -11 65 -28 65 -51 0 -9 4 -16 9 -16 5 0 11 -17 15 -38 3 -24 17 -49
36 -67 17 -17 40 -44 51 -62 21 -33 32 -37 132 -48 47 -5 57 -10 57 -26 0 -13
7 -19 21 -19 15 0 19 4 15 16 -3 9 -6 18 -6 20 0 2 -6 4 -14 4 -9 0 -15 17
-18 52 -6 62 -32 88 -137 138 -36 17 -74 36 -84 41 -10 5 -26 7 -36 4 -21 -6
-47 35 -37 60 3 9 0 18 -9 21 -8 4 -15 16 -15 29 0 35 -21 85 -36 86 -8 1 -19
2 -24 3 -6 0 -15 8 -20 15 -7 12 -10 9 -16 -13z"/>
<path d="M21833 13971 c-13 -21 -71 -53 -83 -46 -19 12 -3 -29 17 -42 13 -8
23 -21 23 -29 0 -7 18 -16 43 -21 29 -6 45 -15 52 -31 9 -21 22 -27 56 -24 9
1 19 -8 22 -19 3 -12 10 -18 15 -15 18 11 43 -6 57 -40 8 -19 25 -39 39 -45
14 -7 23 -15 21 -19 -9 -14 20 -28 48 -23 32 6 35 18 7 26 -26 7 -27 48 -1 71
18 17 18 18 -5 41 -13 13 -24 28 -24 33 0 6 -18 17 -39 25 -22 9 -42 21 -46
27 -3 5 -27 19 -52 31 -41 19 -56 37 -53 64 2 14 -33 24 -48 12 -15 -12 -28
-1 -34 26 -3 16 -4 16 -15 -2z"/>
<path d="M24445 13851 c-46 -21 -65 -41 -70 -73 -2 -13 -12 -45 -22 -73 -22
-58 -62 -85 -130 -85 -45 0 -73 -19 -73 -50 0 -10 -4 -22 -10 -25 -15 -9 -12
-42 5 -49 8 -3 15 -1 15 5 0 6 9 7 23 3 34 -11 66 -5 116 20 16 9 52 16 79 16
87 0 138 44 160 140 7 30 15 66 19 78 9 35 -16 99 -41 106 -28 8 -25 8 -71
-13z"/>
<path d="M14366 13783 c-24 -48 -30 -99 -13 -132 8 -16 13 -48 12 -72 -2 -24
2 -51 10 -61 8 -13 10 -30 5 -53 -5 -20 -3 -56 5 -89 8 -35 13 -144 14 -316 1
-199 5 -268 15 -289 9 -17 14 -61 14 -126 0 -95 22 -236 41 -259 5 -6 12 -58
15 -116 7 -98 20 -172 36 -195 4 -5 8 -57 8 -114 1 -75 5 -109 17 -127 8 -13
15 -30 15 -39 0 -27 30 -75 46 -75 14 0 16 17 14 128 -2 109 -3 417 -2 491 0
18 -2 21 -9 10 -5 -8 -8 100 -8 277 2 298 -2 339 -41 449 -17 46 -29 116 -36
205 -1 19 -14 82 -29 140 -15 58 -35 149 -45 203 -22 112 -43 180 -58 185 -6
2 -17 -10 -26 -25z"/>
<path d="M19691 13726 c-7 -8 -13 -38 -13 -67 -1 -40 3 -55 18 -66 22 -16 60
-10 87 14 10 10 17 12 17 5 0 -7 9 -12 20 -12 11 0 20 -4 20 -10 0 -5 4 -10
10 -10 11 0 8 95 -3 107 -4 3 -7 1 -7 -5 0 -19 -13 -14 -48 18 -39 35 -84 46
-101 26z"/>
<path d="M19993 13423 c-18 -9 -33 -20 -33 -24 0 -4 -9 -5 -20 -2 -15 4 -20 0
-20 -16 0 -27 34 -61 60 -61 11 0 20 -4 20 -10 0 -19 48 -11 55 10 7 21 25 28
25 10 0 -5 7 -10 15 -10 8 0 15 -7 15 -16 0 -8 -4 -13 -9 -10 -16 11 -22 -27
-6 -44 8 -9 15 -26 15 -38 0 -23 40 -72 59 -72 6 0 11 -5 11 -11 0 -7 11 -21
23 -33 14 -13 27 -39 31 -64 3 -23 10 -42 15 -42 5 0 11 -15 14 -32 10 -68 17
-84 49 -110 18 -16 38 -28 44 -28 20 0 24 -28 12 -73 -9 -37 -8 -48 11 -86 11
-25 21 -54 21 -65 0 -22 24 -96 41 -128 10 -19 11 -18 34 6 24 26 68 35 80 16
3 -5 18 -10 33 -10 15 0 38 -7 52 -15 14 -8 32 -17 40 -20 20 -8 60 -70 60
-92 0 -44 48 -90 138 -134 23 -11 43 -25 44 -32 1 -7 4 13 7 43 7 66 -18 145
-58 188 -15 15 -32 41 -40 59 -7 17 -21 39 -31 48 -11 10 -22 31 -26 49 -4 17
-15 42 -25 55 -11 13 -19 29 -19 36 0 7 -7 18 -15 25 -8 7 -15 22 -15 34 0 29
-60 122 -87 135 -13 6 -23 17 -23 26 0 8 -8 15 -17 15 -9 0 -34 8 -54 18 -29
12 -39 23 -39 41 0 17 -4 22 -16 17 -8 -3 -12 -2 -9 4 3 6 -2 23 -11 40 -13
21 -20 26 -26 17 -5 -8 -8 -6 -8 6 0 10 -5 15 -11 12 -5 -4 -21 -4 -35 -1 -17
5 -24 13 -24 30 0 35 -10 56 -27 56 -9 0 -13 6 -10 14 3 8 -1 20 -9 26 -8 7
-14 20 -14 30 0 15 -12 23 -92 61 -28 12 -38 29 -18 29 25 0 -19 41 -53 51
-29 8 -37 14 -33 27 7 21 -2 35 -31 51 -26 13 -20 14 -60 -6z m147 -133 c0 -5
-4 -10 -10 -10 -5 0 -10 5 -10 10 0 6 5 10 10 10 6 0 10 -4 10 -10z"/>
<path d="M28588 12747 c-30 -12 -58 -60 -58 -100 0 -14 -4 -28 -10 -32 -5 -3
-7 -12 -3 -20 6 -17 53 -20 69 -6 5 5 24 12 43 15 49 7 81 34 97 84 13 37 13
44 0 57 -17 17 -97 19 -138 2z"/>
<path d="M28363 12417 c-23 -12 -49 -35 -58 -52 -8 -16 -19 -37 -24 -45 -5 -8
-17 -34 -26 -57 -10 -23 -23 -44 -29 -46 -7 -3 -34 -47 -60 -100 -37 -73 -55
-97 -79 -108 -21 -10 -39 -32 -60 -72 -16 -32 -49 -79 -74 -105 -44 -46 -84
-100 -111 -149 -8 -13 -34 -43 -60 -66 -73 -66 -92 -89 -113 -132 -24 -52 -53
-85 -73 -85 -15 0 -25 -17 -55 -92 -5 -15 -25 -35 -43 -44 -52 -27 -158 -128
-158 -151 0 -7 -24 -31 -52 -54 -29 -23 -57 -47 -61 -55 -4 -8 -28 -23 -52
-34 -24 -11 -46 -29 -50 -40 -3 -11 -10 -20 -15 -20 -5 0 -14 -15 -21 -34 -9
-24 -21 -37 -38 -41 -48 -11 -100 -54 -137 -112 -20 -31 -42 -63 -50 -70 -8
-8 -14 -22 -14 -32 0 -12 -19 -26 -58 -43 -31 -14 -74 -42 -95 -62 -21 -20
-44 -36 -52 -36 -14 0 -75 -65 -75 -80 0 -6 -7 -10 -15 -10 -8 0 -15 -4 -15
-9 0 -5 -11 -12 -25 -15 -14 -4 -33 -14 -43 -24 -21 -21 -87 -52 -109 -52 -9
0 -46 -25 -84 -55 -53 -43 -75 -55 -103 -55 -49 0 -96 -29 -96 -59 0 -41 -48
-131 -76 -141 -14 -6 -64 -10 -112 -11 -48 0 -114 -5 -147 -10 -33 -5 -103
-11 -155 -12 -101 -3 -150 -22 -150 -56 0 -10 -3 -21 -7 -25 -5 -4 -8 -13 -8
-19 0 -35 -199 -57 -430 -47 -22 1 -119 2 -215 2 -587 1 -685 12 -829 90 -98
54 -158 68 -314 72 -115 3 -151 8 -188 24 -26 11 -50 26 -54 32 -8 14 -89 50
-125 56 -14 3 -36 9 -50 13 -46 17 -124 24 -300 25 -100 1 -190 6 -210 13 -19
6 -69 17 -110 23 -41 6 -87 20 -102 31 -15 10 -31 19 -36 19 -5 0 -17 9 -26
19 -23 25 -88 39 -245 51 -145 12 -252 34 -297 61 -41 25 -104 24 -104 -2 0
-17 -42 -50 -56 -45 -9 3 -13 10 -9 15 3 5 -5 13 -17 17 -13 4 -26 11 -29 16
-3 5 -16 5 -32 -1 -21 -8 -26 -16 -25 -43 1 -89 -8 -119 -51 -160 -41 -40 -41
-41 -41 -113 0 -121 35 -255 66 -255 15 0 84 -78 84 -95 0 -6 32 -42 70 -79
39 -38 70 -74 70 -82 0 -12 56 -59 154 -128 23 -15 50 -37 60 -48 11 -11 47
-34 80 -50 34 -16 68 -33 76 -38 8 -5 35 -15 59 -21 33 -8 57 -25 100 -69 55
-58 59 -60 156 -84 60 -16 128 -26 170 -26 52 0 80 -5 108 -20 57 -31 155
-110 218 -178 81 -86 129 -99 394 -106 110 -3 201 -5 202 -5 2 -1 24 -23 50
-50 27 -27 67 -59 90 -71 40 -20 52 -21 170 -16 82 4 148 12 187 25 34 10 81
24 106 31 25 7 61 18 80 26 19 7 82 18 140 23 58 6 141 17 185 25 44 8 127 17
185 21 138 9 221 34 293 87 68 52 141 98 155 98 5 0 15 7 22 15 7 8 20 15 30
15 10 0 37 9 61 20 30 13 66 20 114 20 39 0 81 6 95 14 14 7 45 24 70 36 25
13 70 41 100 62 42 29 68 40 110 44 66 7 102 29 194 119 38 37 83 73 100 80
17 8 49 30 71 50 22 19 67 51 100 69 54 31 135 100 135 116 0 3 41 42 92 85
103 89 204 189 231 230 11 14 29 30 43 35 13 5 36 29 51 52 15 24 37 51 49 60
11 9 32 34 47 56 15 21 48 53 72 71 24 17 47 41 50 54 4 12 37 54 75 92 37 39
86 96 109 128 23 31 62 80 86 107 25 28 45 54 45 59 0 4 18 27 40 50 22 23 40
47 40 52 0 6 31 43 68 83 38 39 79 91 91 116 12 25 28 50 34 55 7 6 29 35 49
65 20 30 45 64 55 75 10 11 33 43 51 72 19 29 50 70 70 91 53 56 145 178 159
210 7 15 12 38 13 52 0 16 15 42 38 67 22 23 58 79 82 125 24 46 47 85 51 88
12 8 55 101 68 150 22 78 29 88 64 101 25 9 41 24 56 54 12 23 21 45 21 49 0
4 25 36 55 71 30 36 55 75 55 87 0 35 -23 89 -36 84 -7 -3 -15 2 -18 10 -8 21
-84 16 -133 -9z"/>
<path d="M26345 12408 c-33 -5 -88 -7 -122 -4 -34 3 -76 0 -94 -6 -22 -8 -58
-8 -128 0 -80 10 -106 9 -155 -4 -98 -25 -172 -84 -182 -143 -7 -41 -40 -74
-100 -101 -25 -11 -49 -30 -58 -47 -14 -29 -64 -78 -119 -118 -15 -11 -27 -23
-27 -27 0 -9 -32 -46 -115 -134 -209 -219 -256 -260 -318 -278 -45 -13 -391
-34 -584 -36 -12 0 -28 -6 -35 -13 -15 -14 -91 -73 -177 -136 -120 -89 -221
-231 -221 -312 0 -43 27 -92 78 -146 17 -17 38 -45 46 -61 19 -37 120 -116
167 -130 48 -15 432 -36 515 -29 339 30 320 26 452 89 45 22 71 42 92 73 16
24 46 53 66 66 52 32 77 57 133 134 27 37 62 76 76 85 15 10 44 39 66 65 21
26 59 62 83 81 24 18 59 57 79 87 20 29 43 59 52 67 29 24 43 75 53 192 14
166 53 243 157 312 36 25 55 44 55 57 0 11 4 18 9 15 5 -3 17 6 27 21 9 15 32
42 51 59 18 17 33 40 33 51 0 21 32 33 89 33 14 0 40 7 56 16 17 9 51 22 77
30 48 15 94 57 123 114 14 27 14 32 0 54 -25 38 -75 44 -200 24z"/>
<path d="M20421 12332 c0 -13 -8 -37 -17 -54 -10 -19 -14 -46 -11 -72 2 -22
-2 -71 -9 -108 -8 -37 -11 -74 -8 -82 3 -7 0 -34 -7 -57 -6 -24 -13 -107 -15
-183 -2 -110 0 -145 12 -168 10 -20 13 -42 9 -68 -5 -29 -1 -48 17 -80 13 -24
27 -51 33 -61 12 -24 24 -24 41 -1 21 27 18 62 -6 62 -18 0 -19 3 -10 20 6 12
8 30 5 40 -4 13 -2 20 7 20 9 0 13 14 14 43 0 23 5 70 11 104 13 69 -2 151
-38 210 -15 24 -18 41 -13 67 3 20 10 34 14 31 12 -7 32 39 28 65 -2 14 -12
42 -22 63 -13 25 -15 41 -8 50 27 33 25 151 -3 141 -8 -4 -15 4 -18 18 l-4 23
-2 -23z"/>
<path d="M20950 12180 c-9 -6 -10 -10 -3 -10 6 0 15 5 18 10 8 12 4 12 -15 0z"/>
<path d="M20975 12151 c-14 -24 8 -105 36 -134 40 -40 64 -33 64 18 1 45 -30
99 -51 91 -7 -3 -20 4 -28 15 -9 13 -16 16 -21 10z"/>
<path d="M14650 11557 c0 -9 -4 -17 -10 -17 -5 0 -10 -7 -10 -15 0 -8 6 -15
14 -15 17 0 29 41 16 54 -7 7 -10 4 -10 -7z"/>
<path d="M21383 11532 c-48 -31 -49 -33 -91 -193 -18 -67 -19 -83 -8 -140 8
-45 23 -79 47 -112 18 -26 49 -69 66 -95 18 -26 83 -99 145 -162 120 -123 156
-164 191 -219 16 -25 38 -41 79 -57 60 -23 149 -27 513 -20 l140 2 64 50 c36
27 87 60 115 74 45 22 55 34 85 93 32 64 34 74 36 190 3 110 1 127 -20 174
-30 67 -139 175 -214 212 -58 29 -183 51 -293 51 -76 0 -167 25 -261 70 -42
21 -83 42 -90 47 -41 31 -246 63 -396 63 -55 0 -73 -5 -108 -28z"/>
<path d="M13248 11433 c-29 -7 -22 -48 9 -62 25 -11 29 -10 46 10 18 23 18 24
-3 41 -12 10 -25 17 -29 17 -3 -1 -14 -3 -23 -6z"/>
<path d="M14865 10730 c3 -5 8 -10 11 -10 2 0 4 5 4 10 0 6 -5 10 -11 10 -5 0
-7 -4 -4 -10z"/>
<path d="M23220 10488 c0 -36 27 -68 58 -68 15 0 42 -4 59 -9 35 -10 37 -9 46
29 5 22 1 27 -36 42 -23 10 -51 17 -62 17 -11 0 -30 2 -42 6 -20 6 -23 4 -23
-17z"/>
<path d="M12956 10484 c-11 -30 -6 -61 15 -88 12 -15 26 -25 32 -23 11 3 12
73 1 110 -7 21 -40 22 -48 1z"/>
<path d="M23689 10412 c-25 -27 -25 -28 -6 -47 18 -20 19 -20 33 -1 15 21 19
76 6 76 -5 0 -20 -12 -33 -28z"/>
<path d="M13040 10300 c0 -5 -6 -7 -14 -4 -9 3 -19 -9 -30 -35 -16 -41 -14
-55 13 -116 5 -11 12 -37 16 -58 3 -21 10 -35 16 -32 11 7 39 -54 39 -86 0
-12 8 -27 17 -34 22 -16 43 3 43 39 0 13 6 31 14 38 21 22 26 80 8 101 -9 10
-17 23 -19 30 -18 87 -34 117 -58 117 -7 0 -16 11 -19 25 -6 24 -26 36 -26 15z"/>
<path d="M21218 10133 c12 -2 32 -2 45 0 12 2 2 4 -23 4 -25 0 -35 -2 -22 -4z"/>
<path d="M13230 9877 c0 -8 -11 -20 -25 -27 -32 -17 -33 -56 -1 -89 25 -27 36
-76 22 -99 -9 -15 10 -42 30 -42 8 0 14 -8 14 -17 1 -10 3 -50 6 -88 4 -65 3
-73 -19 -93 -13 -13 -40 -24 -58 -26 -55 -5 -70 -15 -58 -38 8 -15 7 -24 -6
-38 -26 -29 -23 -100 6 -140 39 -56 85 -100 103 -100 9 0 16 -8 16 -20 0 -11
12 -27 28 -37 36 -23 39 -29 47 -80 5 -32 11 -43 24 -43 11 0 25 -15 37 -40
10 -22 25 -40 32 -40 6 0 12 -9 12 -19 0 -11 4 -22 9 -25 5 -3 12 -18 16 -33
6 -27 94 -143 108 -143 4 0 7 -8 7 -17 0 -27 52 -157 65 -165 32 -19 128 -125
140 -155 8 -18 35 -52 60 -75 39 -36 45 -46 45 -81 0 -37 27 -87 65 -122 20
-18 62 -90 69 -118 7 -30 58 -103 120 -172 20 -22 47 -53 61 -70 73 -85 96
-103 134 -110 26 -4 42 -14 51 -30 9 -16 24 -25 54 -29 52 -8 68 -3 83 29 10
23 9 27 -12 41 -28 18 -55 91 -55 150 0 46 -15 88 -42 117 -9 11 -19 31 -23
45 -3 14 -14 37 -24 51 -10 14 -26 43 -36 63 -9 21 -25 40 -36 43 -10 4 -19
13 -19 22 0 8 -8 17 -18 20 -11 3 -23 22 -31 51 -15 52 -55 112 -75 112 -14 0
-56 41 -56 56 0 15 -71 154 -97 191 -13 17 -23 35 -23 40 0 6 -9 18 -20 28
-11 10 -20 24 -20 31 0 16 -15 48 -45 99 -44 74 -54 105 -57 183 -3 70 -6 79
-30 100 -16 13 -28 30 -28 38 0 8 -4 14 -10 14 -5 0 -10 6 -10 14 0 15 -57
116 -88 156 -10 14 -27 41 -37 60 -10 19 -24 39 -31 43 -8 4 -14 15 -14 23 0
8 -7 29 -16 47 -12 21 -13 32 -5 35 33 11 -19 152 -56 152 -5 0 -25 7 -45 15
-41 16 -55 46 -44 91 5 19 -1 36 -29 74 -28 38 -34 54 -29 74 5 21 3 25 -8 21
-15 -6 -55 41 -50 58 1 4 -5 10 -13 13 -8 4 -15 12 -15 20 0 8 -10 14 -25 14
-14 0 -25 -6 -25 -13z"/>
<path d="M1842 9268 c-16 -16 -15 -34 4 -57 14 -16 20 -17 35 -8 20 12 26 37
10 37 -5 0 -13 9 -16 20 -7 23 -16 25 -33 8z"/>
<path d="M17345 7500 c-4 -6 -15 -8 -24 -5 -12 3 -31 -7 -55 -30 -40 -37 -42
-52 -11 -69 11 -6 25 -17 33 -23 15 -15 61 -17 81 -4 18 11 26 93 12 120 -13
23 -26 27 -36 11z"/>
<path d="M14590 7337 c0 -8 -7 -20 -16 -28 -14 -11 -14 -13 0 -21 8 -5 13 -15
10 -22 -3 -8 -1 -17 5 -21 16 -9 51 4 51 20 0 7 7 15 15 19 22 8 20 56 -2 56
-10 0 -28 3 -40 6 -16 5 -23 2 -23 -9z"/>
<path d="M24010 3715 c-11 -13 -7 -15 30 -15 37 0 41 2 30 15 -7 8 -20 15 -30
15 -10 0 -23 -7 -30 -15z"/>
<path d="M24239 3545 c-2 -63 0 -113 6 -185 4 -44 5 -45 20 -26 13 18 14 17
21 -8 3 -14 10 -26 14 -26 11 0 5 120 -11 227 -11 77 -16 91 -31 90 -15 -1
-18 -12 -19 -72z m35 -100 c-4 -8 -10 -15 -15 -15 -5 0 -9 7 -9 15 0 8 7 15
15 15 9 0 12 -6 9 -15z"/>
<path d="M24276 3249 c-21 -24 -25 -38 -21 -67 11 -89 15 -171 9 -186 -4 -11
-13 -15 -26 -10 -12 3 -27 -1 -38 -11 -11 -10 -40 -20 -64 -22 -56 -7 -69 -21
-61 -67 9 -46 44 -71 78 -55 20 9 30 8 51 -6 55 -36 26 -64 -58 -58 -48 4 -64
2 -75 -11 -14 -17 -3 -36 32 -49 22 -8 35 -39 19 -45 -7 -2 -12 -21 -12 -43 0
-35 3 -39 25 -39 23 0 25 4 25 40 0 22 5 40 10 40 6 0 10 11 10 25 0 14 6 25
13 25 22 0 59 -31 53 -45 -3 -8 2 -19 10 -26 8 -6 13 -21 12 -33 -1 -11 1 -58
6 -103 8 -77 10 -83 31 -83 22 0 23 3 30 135 9 165 3 318 -13 337 -7 9 -8 18
-2 24 32 32 39 317 8 348 -22 21 -22 21 -52 -15z"/>
<path d="M17798 3063 c-20 -5 -23 -30 -8 -53 5 -8 10 -13 10 -10 0 3 4 20 9
38 5 17 9 31 8 31 -1 -1 -10 -3 -19 -6z"/>
<path d="M20445 2969 c-17 -13 -32 -24 -34 -26 -9 -6 9 -15 49 -24 34 -8 48
-6 67 6 13 9 21 20 18 25 -4 6 -1 10 6 10 25 0 -6 18 -41 25 -28 5 -42 2 -65
-16z"/>
<path d="M19782 2932 c-13 -4 -41 -25 -63 -46 -35 -35 -39 -45 -39 -88 l0 -49
47 4 c26 3 49 10 51 16 2 7 36 11 95 11 84 0 130 8 184 33 12 5 30 7 39 3 21
-8 144 33 144 48 0 13 -46 36 -71 36 -9 0 -33 -7 -53 -15 -20 -9 -36 -11 -36
-5 0 5 -7 7 -16 3 -8 -3 -26 -1 -40 6 -13 6 -35 16 -47 22 -13 6 -30 10 -38 8
-8 -1 -27 3 -42 9 -30 13 -78 14 -115 4z"/>
<path d="M20629 2829 c-7 -5 -48 -9 -90 -9 -62 0 -81 -4 -103 -21 -57 -45 -26
-74 82 -78 47 -1 88 -9 115 -22 23 -11 32 -18 20 -15 -12 2 -32 -3 -44 -12
-13 -9 -48 -17 -82 -18 -32 -1 -61 -5 -65 -8 -15 -15 -58 -5 -67 17 -13 28
-75 38 -75 12 0 -13 -5 -15 -17 -9 -10 5 -56 10 -103 11 -47 2 -92 7 -100 10
-8 4 -82 7 -165 8 -146 2 -186 5 -232 20 -21 7 -23 4 -23 -24 0 -17 5 -31 10
-31 6 0 10 -6 10 -14 0 -8 8 -34 19 -58 16 -37 24 -45 62 -56 24 -7 82 -12
129 -11 159 3 218 1 239 -10 26 -14 209 -13 236 2 12 6 136 11 321 13 321 3
339 6 350 51 4 14 -2 33 -16 53 -19 27 -27 30 -75 30 -59 0 -70 8 -61 46 5 18
13 24 29 23 60 -5 74 0 70 26 -8 38 -29 49 -88 46 -29 -1 -56 2 -59 8 -6 9
-29 12 -162 25 -27 2 -57 0 -65 -5z"/>
<path d="M24020 2558 c0 -13 -3 -33 -6 -46 -5 -18 -3 -21 10 -16 18 7 24 84 6
84 -5 0 -10 -10 -10 -22z"/>
<path d="M24097 2505 c-3 -7 2 -23 11 -35 15 -18 19 -19 36 -7 26 19 13 57
-19 57 -12 0 -25 -7 -28 -15z"/>
</g>
</svg>
